<svg width="126" height="50" viewBox="0 0 126 50" fill="none" xmlns="http://www.w3.org/2000/svg">
<path d="M59.0155 0.470703C68.4308 0.470703 72.1374 6.30577 72.1374 11.6114C72.1374 17.9401 68.3316 23.5434 59.9164 23.5434H51.6023C50.3674 23.5434 49.833 23.4115 49.833 22.7521C49.833 21.2693 51.9363 22.4563 51.9363 18.4997V5.51444C51.9363 1.55971 49.833 2.7467 49.833 1.26203C49.833 0.60259 50.3674 0.470703 51.6023 0.470703L59.0155 0.470703ZM68.03 13.3259C68.03 6.99723 64.1898 2.11929 57.9123 2.11929C56.309 2.11929 55.809 2.35104 55.809 3.57005V19.8525C55.809 21.1713 56.3758 21.8308 59.5155 21.8308C66.0603 21.8308 68.03 17.9081 68.03 13.3278V13.3259Z" fill="#33495F"/>
<path d="M86.0991 9.96249C86.0991 11.0176 85.4654 11.8749 84.6294 11.8749C83.093 11.9069 83.1941 10.3261 81.5909 10.3261C80.2548 10.3261 79.0199 12.0407 79.0199 14.6765V19.0928C79.0199 22.1903 80.5888 21.5328 80.5888 22.8177C80.5888 23.4112 80.0869 23.5431 79.2203 23.5431H75.0137C74.1796 23.5431 73.6108 23.3773 73.6108 22.7857C73.6108 21.5328 75.2465 22.1922 75.2465 19.0928V12.6323C75.2465 11.6111 74.9793 10.8857 74.2121 10.3921C73.878 10.1603 73.6108 9.93046 73.6108 9.5348C73.6108 9.10711 73.8112 8.87537 74.6129 8.51362C75.8153 7.98607 77.4167 7.49244 77.9186 7.45852C78.3863 7.45852 78.6191 7.68838 78.6191 8.31579L78.5867 10.5899C79.7548 8.61159 81.5584 7.39258 83.3277 7.39258C85.1982 7.39258 86.0991 8.57956 86.0991 9.96438V9.96249Z" fill="#33495F"/>
<path d="M83.1655 21.8288C83.1655 20.3461 84.3679 19.4229 85.536 19.4229C86.7041 19.4229 87.7062 20.1803 87.7062 21.5651C87.7062 22.9499 86.5381 23.8731 85.3013 23.8731C84.1656 23.8731 83.1636 23.1816 83.1636 21.8288H83.1655Z" fill="#33495F"/>
<path d="M58.1815 25.9585C65.3274 25.9585 69.2669 29.5835 69.2669 34.3314C69.2669 39.0794 65.795 41.8471 59.1167 41.8471H56.4789C55.9121 41.8471 55.8109 41.8792 55.8109 42.5066V43.8914C55.8109 47.7481 57.8474 46.8249 57.8474 48.2418C57.8474 48.8353 57.3798 49.0331 56.0781 49.0331H51.6043C50.3694 49.0331 49.835 48.8353 49.835 48.2418C49.835 46.8249 51.9383 47.7481 51.9383 43.8914V31.0041C51.9383 27.0494 49.835 28.2364 49.835 26.7517C49.835 26.0923 50.3694 25.9604 51.6043 25.9604H58.1815V25.9585ZM65.1938 34.891C65.1938 30.5406 62.1553 27.673 58.1147 27.673C56.0438 27.673 55.8109 27.8709 55.8109 28.5623V39.1095C55.8109 39.801 56.2785 40.1307 58.9487 40.1307C62.6553 40.1307 65.1919 38.6479 65.1919 34.8891L65.1938 34.891Z" fill="#33495F"/>
<path d="M86.6432 47.2192C86.6432 48.1744 85.0743 49.2635 83.5379 49.2635C82.0014 49.2635 81.3334 48.4062 80.9669 46.7576C79.4648 48.5042 77.1611 49.3294 75.2238 49.3294C71.3168 49.3294 68.9463 47.1872 68.9463 44.3855C68.9463 41.2541 71.7844 39.0139 76.1915 39.0139C77.3271 39.0139 78.1288 39.1119 79.3293 39.3437C78.6956 37.0036 78.1269 35.257 75.4567 35.257C73.7542 35.257 72.4525 35.8505 71.1489 36.5759C70.5152 36.9716 69.8796 36.4779 70.3472 35.7186C71.1813 34.4657 73.653 32.917 76.7584 32.917C80.7322 32.917 82.0682 35.4888 82.7687 38.2904L84.3719 44.9809C84.706 46.4637 85.3072 46.7614 86.0077 46.7614C86.3741 46.7293 86.6413 46.8593 86.6413 47.223L86.6432 47.2192ZM80.4325 44.4515C80.3333 43.792 80.066 42.9348 79.732 41.6498C79.5641 40.8585 77.8291 40.5627 76.7603 40.5627C74.0882 40.5627 72.6204 41.8476 72.6529 43.858C72.7197 45.8683 74.155 47.385 76.4931 47.385C78.5964 47.385 80.6997 45.8363 80.4325 44.4515Z" fill="#33495F"/>
<path d="M109.348 33.211C110.217 33.211 110.784 33.3768 110.784 33.9363C110.784 34.9914 109.482 34.6956 108.381 37.2976L103.672 48.2084C103.472 48.638 103.271 48.9338 102.237 49.0977C101.301 49.2955 100.901 49.1636 100.735 48.702L96.8944 38.2528L93.121 48.2065C92.955 48.6361 92.5541 48.9319 91.7525 49.0958C90.7505 49.3257 90.3172 49.1618 90.1493 48.7002L85.5742 37.3296C84.5398 34.6937 83.2705 35.0216 83.2705 33.9684C83.2705 33.3749 83.7725 33.2091 84.639 33.2091H89.0804C89.9488 33.2091 90.5157 33.4069 90.5157 33.9684C90.5157 35.0235 88.546 34.6937 89.6148 37.3296L92.5866 44.7134L96.6596 33.9024C96.8276 33.5407 97.0261 33.243 97.696 33.0791C98.5645 32.8812 98.8985 33.1111 99.0645 33.5407L103.306 44.7812L106.51 37.2995C107.646 34.6956 105.842 34.9914 105.842 33.9382C105.842 33.3447 106.377 33.2128 107.245 33.2128H109.348V33.211Z" fill="#33495F"/>
<path d="M112.32 48.1425C111.82 46.8236 111.452 45.9023 111.118 44.6814C110.984 44.0879 111.118 43.7582 111.484 43.6263C111.919 43.4285 112.352 43.7582 112.954 44.3178C115.324 46.7558 117.16 47.647 119.031 47.647C120.367 47.647 121.401 46.9875 121.401 45.7685C121.401 44.4836 119.632 43.5943 116.826 42.4393C114.087 41.3183 111.516 40.1313 111.516 37.3956C111.516 34.2981 114.389 32.8794 116.926 32.8794C118.762 32.8794 119.865 33.2751 120.798 33.309C121.399 33.341 121.533 32.8794 122.033 32.8794C122.501 32.8794 122.734 33.2751 123.201 34.0664C123.669 34.9236 123.902 35.4512 124.169 36.1106C124.436 36.8021 124.369 37.2637 124.001 37.4615C123.434 37.7573 122.9 37.1978 121.796 36.3744C120.495 35.4512 118.825 34.5619 117.323 34.5619C115.719 34.5619 114.885 35.3853 114.885 36.3424C114.885 37.6273 116.355 38.3527 119.26 39.5397C122.665 40.9245 125.07 42.2095 125.07 44.6475C125.07 47.2852 122.499 49.3615 118.891 49.3615C116.487 49.3615 115.42 48.7021 114.717 48.7021C114.217 48.7021 114.049 49.3615 113.416 49.3615C112.915 49.3615 112.748 49.1298 112.314 48.1425H112.32Z" fill="#33495F"/>
<path d="M3.44156 1.25049H19.4322C32.9415 1.25049 43.9086 12.0765 43.9086 25.4122C43.9086 38.7479 32.9415 49.5739 19.4322 49.5739H3.44156C1.60544 49.5739 0.116699 48.1043 0.116699 46.2918V4.53259C0.116699 2.72009 1.60544 1.25049 3.44156 1.25049Z" fill="#33495F"/>
<path d="M13.0477 12.1504H19.8978C27.5706 12.1504 33.8004 18.3001 33.8004 25.8742C33.8004 33.4483 27.5706 39.598 19.8978 39.598H13.0477C11.4712 39.598 10.1924 38.3356 10.1924 36.7794V14.9709C10.1924 13.4146 11.4712 12.1523 13.0477 12.1523V12.1504Z" fill="#FDC776"/>
<path d="M13.0479 39.5959C13.0459 36.9487 13.7312 33.0034 15.2256 29.6177C18.9284 21.2334 29.4641 16.7945 36.9956 20.9565C37.4327 21.1976 37.8278 21.5179 38.1141 21.923C39.3051 23.6093 38.1923 25.5329 38.1923 25.5329C38.1923 25.5329 42.0859 26.9253 40.0074 32.9073C38.534 36.4513 35.4515 36.6378 35.4515 36.6378C35.4515 36.6378 34.0067 42.8912 26.4503 39.0514L26.1774 38.8347C24.5951 39.4452 22.3945 39.594 22.3945 39.594H13.0479V39.5959Z" fill="#F7F1DE"/>
<path d="M39.1352 25.8851C39.0398 25.8851 38.9405 25.8644 38.8489 25.8211C36.7895 24.8545 34.0411 25.7476 34.0143 25.757C33.6651 25.8738 33.2852 25.6873 33.1688 25.3425C33.0505 24.9977 33.2375 24.6247 33.5868 24.5079C33.7204 24.4626 36.8697 23.432 39.4234 24.6303C39.7574 24.7867 39.8987 25.1805 39.7403 25.5083C39.6258 25.7457 39.3872 25.8851 39.1371 25.8851H39.1352Z" fill="#33495F"/>
<path d="M36.0623 37.6098C36.0299 37.6098 35.9955 37.6079 35.9631 37.6023C35.5985 37.5476 35.3466 37.2123 35.4019 36.8524C35.5565 35.8331 35.379 35.0889 34.8561 34.5745C33.8273 33.5628 31.6247 33.64 30.8613 33.7549C30.4967 33.8096 30.1551 33.5628 30.0997 33.2029C30.0444 32.843 30.2944 32.5058 30.6589 32.4511C30.7983 32.4304 34.0869 31.9556 35.7989 33.64C36.6311 34.4577 36.9403 35.6051 36.7208 37.0465C36.6712 37.3743 36.3868 37.6079 36.0604 37.6079L36.0623 37.6098Z" fill="#33495F"/>
<path d="M26.6087 40.5568C26.4827 40.5568 26.3548 40.521 26.2422 40.4475C25.034 39.6618 24.1007 37.8719 23.9976 37.6703C23.8316 37.3444 23.9652 36.9487 24.2954 36.7848C24.6256 36.6209 25.0264 36.7528 25.1925 37.0787C25.4272 37.5403 26.2079 38.8441 26.977 39.3453C27.2843 39.545 27.3702 39.9539 27.1679 40.2591C27.04 40.4513 26.8263 40.5549 26.6106 40.5549L26.6087 40.5568Z" fill="#33495F"/>
</svg>
