<svg width="61" height="60" viewBox="0 0 61 60" fill="none" xmlns="http://www.w3.org/2000/svg">
<rect x="2.5" y="2" width="56" height="56" rx="28" fill="#33495F"/>
<rect x="2.5" y="2" width="56" height="56" rx="28" stroke="white" stroke-width="4"/>
<g clip-path="url(#clip0_2528_18510)">
<path d="M35.5795 16.6616C34.4994 16.6617 33.5036 17.2476 32.7753 18.3114C32.1052 19.2905 31.7361 20.5786 31.7361 21.9388C31.7361 23.2989 32.1052 24.5871 32.7753 25.566C33.5036 26.63 34.4995 27.2159 35.5795 27.2158C36.4136 27.2158 37.1974 26.8665 37.8467 26.2172C38.0381 26.0258 38.2179 25.8082 38.3837 25.566C39.0538 24.587 39.4229 23.2989 39.4229 21.9387C39.4229 20.5786 39.0538 19.2904 38.3837 18.3114C37.6554 17.2475 36.6596 16.6616 35.5795 16.6616ZM37.958 21.9387C37.958 24.0052 36.8688 25.7511 35.5795 25.7511C34.9976 25.7511 34.431 25.3915 33.9841 24.7387C33.4791 24.0009 33.2009 23.0066 33.2009 21.9388C33.2009 20.5913 33.6641 19.3803 34.3438 18.7006C34.7065 18.3378 35.1309 18.1264 35.5795 18.1264C36.8687 18.1266 37.958 19.8724 37.958 21.9387ZM27.6905 26.2172C27.8819 26.0258 28.0617 25.8083 28.2274 25.5661C28.8976 24.5871 29.2667 23.2989 29.2667 21.9388C29.2667 20.5787 28.8976 19.2905 28.2274 18.3115C27.4992 17.2476 26.5033 16.6617 25.4233 16.6617C24.3434 16.6617 23.3473 17.2476 22.6191 18.3115C21.949 19.2905 21.5798 20.5786 21.5798 21.9388C21.5798 23.2989 21.9489 24.5871 22.619 25.5661C23.3473 26.63 24.3432 27.2159 25.4232 27.2159C26.2574 27.2159 27.0412 26.8665 27.6905 26.2172ZM23.8279 24.7387C23.3228 24.0009 23.0447 23.0066 23.0447 21.9388C23.0447 20.871 23.3228 19.8767 23.8279 19.1389C23.9406 18.9741 24.0609 18.8282 24.1872 18.7018C24.5615 18.3276 24.9881 18.1265 25.4232 18.1265C26.7126 18.1265 27.8018 19.8723 27.8018 21.9389C27.8018 23.0066 27.5236 24.001 27.0186 24.7387C26.5719 25.3915 26.0052 25.7511 25.4232 25.7511C24.8413 25.7511 24.2747 25.3915 23.8279 24.7387ZM24.6168 31.3455C23.0331 33.0129 21.9265 35.3318 21.501 37.8746C21.2408 39.4288 21.714 40.9229 22.7992 41.9741C23.9164 43.0563 25.374 43.3859 26.7983 42.8784C27.9812 42.4568 29.2271 42.243 30.5014 42.243C31.7757 42.243 33.0216 42.4568 34.2044 42.8784C35.6286 43.3859 37.0862 43.0563 38.2035 41.9741C38.2211 41.9572 38.2385 41.9401 38.2557 41.9228C39.3038 40.8748 39.7576 39.4038 39.5018 37.8747C39.0763 35.3318 37.9697 33.0129 36.3859 31.3455C34.7411 29.6138 32.6513 28.6601 30.5014 28.66C28.3514 28.66 26.2621 29.614 24.6168 31.3455ZM38.057 38.1165C38.239 39.2042 37.9287 40.1996 37.1845 40.9219C36.4722 41.6117 35.5885 41.8165 34.6963 41.4985C33.3551 41.0206 31.9438 40.7782 30.5014 40.7782C29.0591 40.7782 27.6477 41.0205 26.3066 41.4985C25.4142 41.8165 24.5305 41.6118 23.8184 40.922C23.0736 40.2005 22.7637 39.2042 22.9458 38.1165C23.3493 35.7051 24.4044 33.638 25.8319 32.2105C27.1456 30.8968 28.7747 30.1248 30.5014 30.1249C34.1045 30.1248 37.2822 33.4858 38.057 38.1165ZM19.402 33.4838C19.858 33.3538 20.2631 33.1118 20.6005 32.7744C20.9284 32.4464 21.1925 32.0283 21.377 31.5354C21.7223 30.613 21.7465 29.5229 21.445 28.4659C21.1436 27.4088 20.5481 26.4954 19.7683 25.8939C18.9228 25.2417 17.9619 25.0237 17.0627 25.2802C16.1635 25.5365 15.4621 26.2285 15.0876 27.2286C14.7424 28.151 14.7182 29.2411 15.0196 30.2981C15.321 31.3551 15.9165 32.2685 16.6963 32.8701C17.5418 33.5223 18.5027 33.7403 19.402 33.4838ZM16.4283 29.8964C16.2121 29.1384 16.2232 28.3734 16.4595 27.7422C16.5683 27.4517 16.7182 27.2106 16.8999 27.0289C17.0644 26.8644 17.255 26.7486 17.4644 26.6889C17.9052 26.5632 18.4056 26.6928 18.8737 27.0537C19.4073 27.4654 19.8203 28.1095 20.0364 28.8676C20.2525 29.6256 20.2414 30.3906 20.0052 31.0218C19.7978 31.5756 19.4409 31.9495 19.0002 32.0752C18.5594 32.2008 18.059 32.0713 17.5909 31.7103C17.0573 31.2986 16.6444 30.6544 16.4283 29.8964ZM43.94 25.2801C43.0408 25.0238 42.0799 25.2417 41.2344 25.8939C40.4545 26.4956 39.8592 27.409 39.5577 28.4659C39.2563 29.5229 39.2804 30.613 39.6258 31.5354C40.0001 32.5355 40.7015 33.2275 41.6008 33.4839C42.5001 33.7403 43.461 33.5223 44.3065 32.8701C44.4481 32.7609 44.5835 32.6414 44.7123 32.5126C45.2928 31.9321 45.7365 31.1632 45.9832 30.2981C46.2846 29.2411 46.2604 28.151 45.9152 27.2286C45.5408 26.2285 44.8393 25.5365 43.94 25.2801C43.9401 25.2801 43.9401 25.2801 43.94 25.2801ZM44.5432 27.7422C44.7795 28.3734 44.7906 29.1384 44.5745 29.8964C44.1581 31.356 42.9804 32.354 42.0025 32.0752C41.5617 31.9495 41.2048 31.5754 40.9976 31.0218C40.7613 30.3906 40.7502 29.6256 40.9663 28.8676C41.1486 28.2283 41.477 27.6776 41.8706 27.284C42.3759 26.7787 42.9887 26.5322 43.5384 26.6889C43.9791 26.8145 44.336 27.1886 44.5432 27.7422Z" fill="#F7F1DE"/>
</g>
<defs>
<clipPath id="clip0_2528_18510">
<rect width="32" height="32" fill="white" transform="translate(14.5 14)"/>
</clipPath>
</defs>
</svg>
