<svg width="25" height="24" viewBox="0 0 25 24" fill="none" xmlns="http://www.w3.org/2000/svg">
<path d="M20.8327 18.957H4.16602C3.82435 18.957 3.54102 18.6737 3.54102 18.332C3.54102 17.9904 3.82435 17.707 4.16602 17.707H20.8327C21.1743 17.707 21.4577 17.9904 21.4577 18.332C21.4577 18.6737 21.1743 18.957 20.8327 18.957Z" fill="#33495F"/>
<path d="M20 18.9596H5C4.65833 18.9596 4.375 18.6763 4.375 18.3346V5.0013C4.375 2.48464 5.81667 1.04297 8.33333 1.04297H16.6667C19.1833 1.04297 20.625 2.48464 20.625 5.0013V18.3346C20.625 18.6763 20.3417 18.9596 20 18.9596ZM5.625 17.7096H19.375V5.0013C19.375 3.1513 18.5167 2.29297 16.6667 2.29297H8.33333C6.48333 2.29297 5.625 3.1513 5.625 5.0013V17.7096Z" fill="#33495F"/>
<path d="M15 18.9583H10C9.65833 18.9583 9.375 18.675 9.375 18.3333V13.2833C9.375 12.5083 10.0083 11.875 10.7833 11.875H14.225C15 11.875 15.6333 12.5083 15.6333 13.2833V18.3333C15.625 18.675 15.3417 18.9583 15 18.9583ZM10.625 17.7083H14.375V13.2833C14.375 13.2 14.3083 13.125 14.2167 13.125H10.775C10.6917 13.125 10.6167 13.1917 10.6167 13.2833V17.7083H10.625Z" fill="#33495F"/>
<path d="M12.5 9.79167C12.1583 9.79167 11.875 9.50833 11.875 9.16667V5C11.875 4.65833 12.1583 4.375 12.5 4.375C12.8417 4.375 13.125 4.65833 13.125 5V9.16667C13.125 9.50833 12.8417 9.79167 12.5 9.79167Z" fill="#33495F"/>
<path d="M14.5827 7.70703H10.416C10.0743 7.70703 9.79102 7.4237 9.79102 7.08203C9.79102 6.74036 10.0743 6.45703 10.416 6.45703H14.5827C14.9243 6.45703 15.2077 6.74036 15.2077 7.08203C15.2077 7.4237 14.9243 7.70703 14.5827 7.70703Z" fill="#33495F"/>
</svg>
