<svg width="29" height="26" viewBox="0 0 29 26" fill="none" xmlns="http://www.w3.org/2000/svg">
<rect x="2.5" y="1" width="24" height="24" rx="2" fill="#33495F"/>
<path d="M27.8327 25.9016H1.16602C0.619349 25.9016 0.166016 25.4936 0.166016 25.0016C0.166016 24.5096 0.619349 24.1016 1.16602 24.1016H27.8327C28.3794 24.1016 28.8327 24.5096 28.8327 25.0016C28.8327 25.4936 28.3794 25.9016 27.8327 25.9016Z" fill="#33495F"/>
<path d="M26.5 25.9016H2.5C1.95333 25.9016 1.5 25.4936 1.5 25.0016V5.80156C1.5 2.17756 3.80667 0.101562 7.83333 0.101562H21.1667C25.1933 0.101562 27.5 2.17756 27.5 5.80156V25.0016C27.5 25.4936 27.0467 25.9016 26.5 25.9016ZM3.5 24.1016H25.5V5.80156C25.5 3.13756 24.1267 1.90156 21.1667 1.90156H7.83333C4.87333 1.90156 3.5 3.13756 3.5 5.80156V24.1016Z" fill="#33495F"/>
<path d="M18.5 25.9031H10.5C9.95333 25.9031 9.5 25.4951 9.5 25.0031V17.7311C9.5 16.6151 10.5133 15.7031 11.7533 15.7031H17.26C18.5 15.7031 19.5133 16.6151 19.5133 17.7311V25.0031C19.5 25.4951 19.0467 25.9031 18.5 25.9031ZM11.5 24.1031H17.5V17.7311C17.5 17.6111 17.3933 17.5031 17.2467 17.5031H11.74C11.6067 17.5031 11.4867 17.5991 11.4867 17.7311V24.1031H11.5Z" fill="#F7F1DE"/>
<path d="M14.5 12.7023C13.9533 12.7023 13.5 12.2943 13.5 11.8023V5.80234C13.5 5.31034 13.9533 4.90234 14.5 4.90234C15.0467 4.90234 15.5 5.31034 15.5 5.80234V11.8023C15.5 12.2943 15.0467 12.7023 14.5 12.7023Z" fill="#F7F1DE"/>
<path d="M17.8327 9.70234H11.166C10.6193 9.70234 10.166 9.29434 10.166 8.80234C10.166 8.31034 10.6193 7.90234 11.166 7.90234H17.8327C18.3793 7.90234 18.8327 8.31034 18.8327 8.80234C18.8327 9.29434 18.3793 9.70234 17.8327 9.70234Z" fill="#F7F1DE"/>
</svg>
