<svg width="25" height="24" viewBox="0 0 25 24" fill="none" xmlns="http://www.w3.org/2000/svg">
<g clip-path="url(#clip0_2521_19964)">
<path d="M1.91917 6.30795C0.181954 10.045 -0.206418 12.6391 0.78774 14.0105C1.2257 14.6165 1.93758 14.9637 2.68482 14.9361C2.77647 14.9342 2.86813 14.9266 2.95894 14.9132C3.01607 14.5933 3.0734 14.2503 3.15334 13.9076L3.34752 13.0162C3.96461 10.1364 4.85602 6.06794 6.90167 3.37109C5.40468 3.47384 2.99326 3.99969 1.91917 6.30795Z" fill="#33495F"/>
<path d="M20.0395 13.2656C19.0408 8.66662 17.5308 1.71484 12.2499 1.71484C6.96899 1.71484 5.45903 8.66662 4.46026 13.2656L4.26378 14.1616C3.69461 16.7251 3.94174 18.6245 5.02085 19.9694C6.20208 21.4415 8.39295 22.1904 11.6784 22.2693V18.7756C10.6721 18.5165 9.96758 17.6105 9.96423 16.5711C9.96486 15.9402 10.4763 15.429 11.1072 15.4284H13.3926C14.0235 15.429 14.5349 15.9402 14.5356 16.5711C14.5322 17.6105 13.8279 18.5165 12.8214 18.7756V22.2693C16.1068 22.1904 18.2977 21.4415 19.4789 19.9694C20.558 18.6247 20.8052 16.7253 20.236 14.1618L20.0395 13.2656ZM10.5357 10.8571C10.3842 10.8573 10.2388 10.797 10.1316 10.6899C10.0243 10.5827 9.96423 10.4373 9.96423 10.2858C9.96423 9.97027 9.70852 9.71435 9.39297 9.71435C9.07742 9.71435 8.8215 9.97027 8.8215 10.2858C8.8215 10.6014 8.56559 10.8571 8.25003 10.8571C7.93448 10.8571 7.67877 10.6014 7.67877 10.2858C7.67877 9.33895 8.4461 8.57162 9.39297 8.57162C10.3396 8.57162 11.1072 9.33895 11.1072 10.2858C11.1072 10.4373 11.0471 10.5827 10.9398 10.6899C10.8326 10.797 10.6872 10.8573 10.5357 10.8571ZM16.2497 10.8571C16.098 10.8573 15.9528 10.797 15.8455 10.6899C15.7383 10.5827 15.6783 10.4373 15.6783 10.2858C15.6783 9.97027 15.4224 9.71435 15.1068 9.71435C14.7913 9.71435 14.5356 9.97027 14.5356 10.2858C14.5356 10.6014 14.2796 10.8571 13.9641 10.8571C13.6485 10.8571 13.3926 10.6014 13.3926 10.2858C13.3926 9.33895 14.1602 8.57162 15.1068 8.57162C16.0537 8.57162 16.821 9.33895 16.821 10.2858C16.8212 10.4373 16.761 10.5827 16.6538 10.6899C16.5467 10.797 16.4012 10.8573 16.2497 10.8571Z" fill="#33495F"/>
<path d="M13.3929 16.5703H11.1074C11.1074 17.2014 11.619 17.713 12.2501 17.713C12.8813 17.713 13.3929 17.2014 13.3929 16.5703Z" fill="#33495F"/>
<path d="M22.5802 6.30795C21.5061 3.99948 19.0946 3.47384 17.5977 3.37109C19.6433 6.06794 20.5347 10.1477 21.1518 13.0277L21.3575 13.9191C21.4374 14.2618 21.4946 14.5933 21.5404 14.9132V14.9248C21.6318 14.9248 21.7231 14.9361 21.8145 14.9361C22.5617 14.9637 23.2736 14.6165 23.7116 14.0105C24.706 12.6391 24.3174 10.045 22.5802 6.30795Z" fill="#33495F"/>
</g>
<defs>
<clipPath id="clip0_2521_19964">
<rect width="24" height="24" fill="white" transform="translate(0.25)"/>
</clipPath>
</defs>
</svg>
