<svg width="24" height="21" viewBox="0 0 24 21" fill="none" xmlns="http://www.w3.org/2000/svg">
<path d="M9.14224 6.85938C8.19583 6.86045 7.42881 7.62726 7.42773 8.57388C7.42773 8.88945 7.68368 9.14524 7.99931 9.14524C8.31488 9.14524 8.57088 8.88945 8.57088 8.57388C8.57088 8.2583 8.82661 8.00231 9.14224 8.00231C9.45787 8.00231 9.71381 8.25825 9.71381 8.57388C9.71381 8.88951 9.96975 9.14524 10.2854 9.14524C10.601 9.14524 10.8567 8.88945 10.8567 8.57388C10.8557 7.62726 10.0889 6.86045 9.14224 6.85938ZM14.8573 6.85938C13.9109 6.86045 13.1439 7.62726 13.1428 8.57388C13.1428 8.88945 13.3988 9.14524 13.7144 9.14524C14.03 9.14524 14.2857 8.88945 14.2857 8.57388C14.2857 8.2583 14.5417 8.00231 14.8573 8.00231C15.1729 8.00231 15.4289 8.25825 15.4289 8.57388C15.4289 8.88951 15.6846 9.14524 16.0003 9.14524C16.3159 9.14524 16.5718 8.88945 16.5718 8.57388C16.5708 7.62726 15.8037 6.86045 14.8573 6.85938Z" fill="#33495F"/>
<path d="M22.3289 4.5931C20.9554 1.6389 17.3956 1.59165 16.3514 1.64207C15.3199 0.637045 13.9326 0 12.0001 0C10.0676 0 8.68015 0.637045 7.64851 1.64207C6.60459 1.59165 3.04522 1.64062 1.67121 4.5931C-0.0707248 8.33683 -0.453113 10.93 0.534334 12.3006C0.751883 12.5983 1.03917 12.838 1.37098 12.9987C1.7028 13.1595 2.06899 13.2363 2.43743 13.2225C2.55922 13.2225 2.68079 13.2156 2.80177 13.2014C3.19337 13.1538 3.57489 13.0441 3.93194 12.8764C3.48366 15.2216 3.75214 16.9899 4.76969 18.2578C6.01978 19.816 8.38515 20.574 12.0001 20.574C15.6147 20.574 17.9801 19.816 19.2302 18.2578C20.2478 16.9899 20.5163 15.2216 20.068 12.8764C20.4251 13.0441 20.8067 13.1538 21.1983 13.2014C21.3193 13.2156 21.4409 13.2225 21.5627 13.2225C21.9311 13.2362 22.2973 13.1593 22.6291 12.9986C22.9609 12.8379 23.2482 12.5982 23.4658 12.3006C24.453 10.93 24.0707 8.33688 22.3289 4.59305L22.3289 4.5931ZM2.67286 12.0662C2.45059 12.1107 2.22041 12.0938 2.00704 12.0172C1.79368 11.9407 1.6052 11.8075 1.46188 11.6319C1.13205 11.1742 0.593377 9.61938 2.70693 5.07525C3.5217 3.32351 5.46016 2.89172 6.70081 2.80091C5.38316 4.83249 4.88612 7.64513 4.45203 10.1284C4.38988 10.4841 4.32853 10.8313 4.26595 11.1734C4.09327 11.5335 3.41497 11.981 2.67286 12.0662ZM12.0001 16.0019C11.369 16.0012 10.8575 15.49 10.8569 14.859H13.143C13.1424 15.49 12.6311 16.0012 12.0001 16.0019ZM18.339 17.5423C17.382 18.7356 15.483 19.3453 12.5714 19.4166V17.0638C13.5781 16.8047 14.2828 15.8985 14.2859 14.859C14.2853 14.2279 13.774 13.7167 13.143 13.716H10.8569C10.2259 13.7166 9.71464 14.2279 9.714 14.859C9.71711 15.8985 10.4218 16.8047 11.4285 17.0638V19.4166C8.51685 19.3453 6.61798 18.7357 5.66108 17.5423C4.81325 16.4853 4.63848 14.9002 5.12867 12.6968C5.29149 11.9613 5.43214 11.1577 5.57776 10.3248C6.33016 6.02064 7.18302 1.14293 12.0001 1.14293C16.8171 1.14293 17.6697 6.02064 18.4221 10.3249C18.5678 11.1577 18.7084 11.9613 18.8715 12.6968C19.3614 14.9002 19.1866 16.4853 18.339 17.5423ZM22.5382 11.6319C22.3942 11.8067 22.2057 11.9394 21.9925 12.0159C21.7793 12.0924 21.5494 12.1099 21.3271 12.0664C20.5851 11.9812 19.9066 11.5335 19.7339 11.1736C19.6705 10.8255 19.6085 10.4772 19.5479 10.1286C19.1138 7.64513 18.6167 4.83227 17.2989 2.8007C18.5395 2.89151 20.4784 3.32394 21.293 5.07547C23.4066 9.61938 22.868 11.1744 22.5382 11.6319Z" fill="#33495F"/>
</svg>
