<svg width="25" height="24" viewBox="0 0 25 24" fill="none" xmlns="http://www.w3.org/2000/svg">
<path d="M12.593 10.6197L12.6513 10.6217L12.6924 10.6135C12.7028 10.613 12.719 10.6125 12.7405 10.6125C12.785 10.6125 12.8397 10.6145 12.8922 10.6185L12.9228 10.6209L12.9535 10.6195C15.182 10.5171 16.9292 8.6862 16.9405 6.44253V6.44C16.9405 4.13386 15.0567 2.25 12.7505 2.25C10.4444 2.25 8.56055 4.13386 8.56055 6.44C8.56055 8.70956 10.3341 10.5402 12.593 10.6197ZM12.9105 11.12H12.9104H12.9102H12.91H12.9098H12.9097H12.9095H12.9093H12.9091H12.909H12.9088H12.9086H12.9085H12.9083H12.9081H12.9079H12.9078H12.9076H12.9074H12.9072H12.9071H12.9069H12.9067H12.9066H12.9064H12.9062H12.9061H12.9059H12.9057H12.9055H12.9054H12.9052H12.905H12.9049H12.9047H12.9045H12.9044H12.9042H12.904H12.9039H12.9037H12.9035H12.9034H12.9032H12.903H12.9029H12.9027H12.9025H12.9024H12.9022H12.902H12.9019H12.9017H12.9015H12.9014H12.9012H12.901H12.9009H12.9007H12.9005H12.9004H12.9002H12.9001H12.8999H12.8997H12.8996H12.8994H12.8992H12.8991H12.8989H12.8988H12.8986H12.8984H12.8983H12.8981H12.8979H12.8978H12.8976H12.8975H12.8973H12.8971H12.897H12.8968H12.8967H12.8965H12.8963H12.8962H12.896H12.8959H12.8957H12.8955H12.8954H12.8952H12.8951H12.8949H12.8948H12.8946H12.8944H12.8943H12.8941H12.894H12.8938H12.8936H12.8935H12.8933H12.8932H12.893H12.8929H12.8927H12.8926H12.8924H12.8922H12.8921H12.8919H12.8918H12.8916H12.8915H12.8913H12.8912H12.891H12.8908H12.8907H12.8905H12.8904H12.8902H12.8901H12.8899H12.8898H12.8896H12.8895H12.8893H12.8891H12.889H12.8888H12.8887H12.8885H12.8884H12.8882H12.8881H12.8879H12.8878H12.8876H12.8875H12.8873H12.8872H12.887H12.8869H12.8867H12.8866H12.8864H12.8863H12.8861H12.8859H12.8858H12.8856H12.8855H12.8853H12.8852H12.885H12.8849H12.8847H12.8846H12.8844H12.8843H12.8841H12.884H12.8838H12.8837H12.8835H12.8834H12.8832H12.8831H12.8829H12.8828H12.8826H12.8825H12.8823H12.8822H12.882H12.8819H12.8817H12.8816H12.8814H12.8813H12.8811H12.881H12.8809H12.8807H12.8806H12.8804H12.8803H12.8801H12.88H12.8798H12.8797H12.8795H12.8794H12.8792H12.8791H12.8789H12.8788H12.8786H12.8785H12.8783H12.8782H12.878H12.8779H12.8777H12.8776H12.8774H12.8773H12.8772H12.877H12.8769H12.8767H12.8766H12.8764H12.8763H12.8761H12.876H12.8758H12.8757H12.8755H12.8754H12.8752H12.8751H12.8749H12.8748H12.8747H12.8745H12.8744H12.8742H12.8741H12.8739H12.8738H12.8736H12.8735H12.8733H12.8732H12.873H12.8729H12.8727H12.8726H12.8725H12.8723H12.8722H12.872H12.8719H12.8717H12.8716H12.8714H12.8713H12.8711H12.871H12.8708H12.8707H12.8705H12.8704H12.8703H12.8701H12.87H12.8698H12.8697H12.8695H12.8694H12.8692H12.8691H12.8689H12.8688H12.8686H12.8685H12.8685C12.7871 11.1098 12.703 11.1106 12.6264 11.1189C10.0132 11.0178 8.06055 8.96409 8.06055 6.44C8.06055 3.85614 10.1667 1.75 12.7505 1.75C15.3341 1.75 17.44 3.85562 17.4405 6.43903C17.4311 8.97998 15.4461 11.0348 12.9323 11.12H12.9323H12.9322H12.9322H12.9321H12.9321H12.932H12.9319H12.9319H12.9318H12.9318H12.9317H12.9316H12.9316H12.9315H12.9315H12.9314H12.9313H12.9313H12.9312H12.9312H12.9311H12.9311H12.931H12.9309H12.9309H12.9308H12.9308H12.9307H12.9306H12.9306H12.9305H12.9305H12.9304H12.9304H12.9303H12.9302H12.9302H12.9301H12.9301H12.93H12.9299H12.9299H12.9298H12.9298H12.9297H12.9296H12.9296H12.9295H12.9295H12.9294H12.9294H12.9293H12.9292H12.9292H12.9291H12.9291H12.929H12.9289H12.9289H12.9288H12.9288H12.9287H12.9287H12.9286H12.9285H12.9285H12.9284H12.9284H12.9283H12.9282H12.9282H12.9281H12.9281H12.928H12.9279H12.9279H12.9278H12.9278H12.9277H12.9277H12.9276H12.9275H12.9275H12.9274H12.9274H12.9273H12.9272H12.9272H12.9271H12.9271H12.927H12.927H12.9269H12.9268H12.9268H12.9267H12.9267H12.9266H12.9265H12.9265H12.9264H12.9264H12.9263H12.9262H12.9262H12.9261H12.9261H12.926H12.926H12.9259H12.9258H12.9258H12.9257H12.9257H12.9256H12.9255H12.9255H12.9254H12.9254H12.9253H12.9253H12.9252H12.9251H12.9251H12.925H12.925H12.9249H12.9248H12.9248H12.9247H12.9247H12.9246H12.9246H12.9245H12.9244H12.9244H12.9243H12.9243H12.9242H12.9241H12.9241H12.924H12.924H12.9239H12.9238H12.9238H12.9237H12.9237H12.9236H12.9236H12.9235H12.9234H12.9234H12.9233H12.9233H12.9232H12.9231H12.9231H12.923H12.923H12.9229H12.9229H12.9228H12.9227H12.9227H12.9226H12.9226H12.9225H12.9224H12.9224H12.9223H12.9223H12.9222H12.9221H12.9221H12.922H12.922H12.9219H12.9219H12.9218H12.9217H12.9217H12.9216H12.9216H12.9215H12.9214H12.9214H12.9213H12.9213H12.9212H12.9212H12.9211H12.921H12.921H12.9209H12.9209H12.9208H12.9207H12.9207H12.9206H12.9206H12.9205H12.9204H12.9204H12.9203H12.9203H12.9202H12.9202H12.9201H12.92H12.92H12.9199H12.9199H12.9198H12.9197H12.9197H12.9196H12.9196H12.9195H12.9195H12.9194H12.9193H12.9193H12.9192H12.9192H12.9191H12.919H12.919H12.9189H12.9189H12.9188H12.9187H12.9187H12.9186H12.9186H12.9185H12.9185H12.9184H12.9183H12.9183H12.9182H12.9182H12.9181H12.918H12.918H12.9179H12.9179H12.9178H12.9178H12.9177H12.9176H12.9176H12.9175H12.9175H12.9174H12.9173H12.9173H12.9172H12.9172H12.9171H12.9171H12.917H12.9169H12.9169H12.9168H12.9168H12.9167H12.9166H12.9166H12.9165H12.9165H12.9164H12.9163H12.9163H12.9162H12.9162H12.9161H12.9161H12.916H12.9159H12.9159H12.9158H12.9158H12.9157H12.9156H12.9156H12.9155H12.9155H12.9154H12.9154H12.9153H12.9152H12.9152H12.9151H12.9151H12.915H12.9149H12.9149H12.9148H12.9148H12.9147H12.9146H12.9146H12.9145H12.9145H12.9144H12.9144H12.9143H12.9142H12.9142H12.9141H12.9141H12.914H12.9139H12.9139H12.9138H12.9138H12.9137H12.9137H12.9136H12.9135H12.9135H12.9134H12.9134H12.9133H12.9132H12.9132H12.9131H12.9131H12.913H12.9129H12.9129H12.9128H12.9128H12.9127H12.9127H12.9126H12.9125H12.9125H12.9124H12.9124H12.9123H12.9122H12.9122H12.9121H12.9121H12.912H12.912H12.9119H12.9118H12.9118H12.9117H12.9117H12.9116H12.9115H12.9115H12.9114H12.9114H12.9113H12.9113H12.9112H12.9111H12.9111H12.911H12.911H12.9109H12.9108H12.9108H12.9107H12.9107H12.9106H12.9105Z" fill="#292D32" stroke="#33495F"/>
<path d="M12.9196 22.55C10.9596 22.55 8.98961 22.05 7.49961 21.05C6.10961 20.13 5.34961 18.87 5.34961 17.5C5.34961 16.13 6.10961 14.86 7.49961 13.93C10.4996 11.94 15.3596 11.94 18.3396 13.93C19.7196 14.85 20.4896 16.11 20.4896 17.48C20.4896 18.85 19.7296 20.12 18.3396 21.05C16.8396 22.05 14.8796 22.55 12.9196 22.55ZM8.32961 15.19C7.36961 15.83 6.84961 16.65 6.84961 17.51C6.84961 18.36 7.37961 19.18 8.32961 19.81C10.8196 21.48 15.0196 21.48 17.5096 19.81C18.4696 19.17 18.9896 18.35 18.9896 17.49C18.9896 16.64 18.4596 15.82 17.5096 15.19C15.0196 13.53 10.8196 13.53 8.32961 15.19Z" fill="#33495F"/>
</svg>
