<svg width="126" height="50" viewBox="0 0 126 50" fill="none" xmlns="http://www.w3.org/2000/svg">
<g id="Group 2">
<g id="Group">
<path id="Vector" d="M59.2655 0.107666C68.6808 0.107666 72.3874 5.94273 72.3874 11.2484C72.3874 17.5771 68.5816 23.1804 60.1664 23.1804H51.8523C50.6174 23.1804 50.083 23.0485 50.083 22.389C50.083 20.9063 52.1863 22.0932 52.1863 18.1366V5.15141C52.1863 1.19668 50.083 2.38366 50.083 0.898989C50.083 0.239553 50.6174 0.107666 51.8523 0.107666L59.2655 0.107666ZM68.28 12.9629C68.28 6.63419 64.4398 1.75625 58.1623 1.75625C56.559 1.75625 56.059 1.988 56.059 3.20701V19.4894C56.059 20.8083 56.6258 21.4677 59.7655 21.4677C66.3103 21.4677 68.28 17.545 68.28 12.9648V12.9629Z" fill="#33495F"/>
<path id="Vector_2" d="M86.3491 9.59958C86.3491 10.6547 85.7154 11.5119 84.8794 11.5119C83.343 11.544 83.4441 9.96321 81.8409 9.96321C80.5048 9.96321 79.2699 11.6777 79.2699 14.3136V18.7299C79.2699 21.8274 80.8388 21.1698 80.8388 22.4548C80.8388 23.0483 80.3369 23.1802 79.4703 23.1802H75.2637C74.4296 23.1802 73.8608 23.0144 73.8608 22.4228C73.8608 21.1698 75.4965 21.8293 75.4965 18.7299V12.2693C75.4965 11.2482 75.2293 10.5228 74.4621 10.0292C74.128 9.79741 73.8608 9.56755 73.8608 9.17189C73.8608 8.74419 74.0612 8.51245 74.8629 8.1507C76.0653 7.62315 77.6667 7.12952 78.1686 7.09561C78.6363 7.09561 78.8691 7.32547 78.8691 7.95287L78.8367 10.227C80.0048 8.24868 81.8084 7.02966 83.5777 7.02966C85.4482 7.02966 86.3491 8.21665 86.3491 9.60146V9.59958Z" fill="#33495F"/>
<path id="Vector_3" d="M83.4155 21.466C83.4155 19.9832 84.6179 19.06 85.786 19.06C86.9541 19.06 87.9562 19.8174 87.9562 21.2022C87.9562 22.587 86.7881 23.5102 85.5513 23.5102C84.4156 23.5102 83.4136 22.8188 83.4136 21.466H83.4155Z" fill="#33495F"/>
<path id="Vector_4" d="M58.4315 25.5957C65.5774 25.5957 69.5169 29.2207 69.5169 33.9686C69.5169 38.7166 66.045 41.4843 59.3667 41.4843H56.7289C56.1621 41.4843 56.0609 41.5164 56.0609 42.1438V43.5286C56.0609 47.3853 58.0974 46.4621 58.0974 47.879C58.0974 48.4725 57.6298 48.6703 56.3281 48.6703H51.8543C50.6194 48.6703 50.085 48.4725 50.085 47.879C50.085 46.4621 52.1883 47.3853 52.1883 43.5286V30.6413C52.1883 26.6866 50.085 27.8736 50.085 26.3889C50.085 25.7295 50.6194 25.5976 51.8543 25.5976H58.4315V25.5957ZM65.4438 34.5282C65.4438 30.1778 62.4053 27.3102 58.3647 27.3102C56.2938 27.3102 56.0609 27.5081 56.0609 28.1995V38.7467C56.0609 39.4382 56.5285 39.7679 59.1987 39.7679C62.9053 39.7679 65.4419 38.2851 65.4419 34.5263L65.4438 34.5282Z" fill="#33495F"/>
<path id="Vector_5" d="M86.8932 46.856C86.8932 47.8112 85.3243 48.9002 83.7879 48.9002C82.2514 48.9002 81.5834 48.043 81.2169 46.3944C79.7148 48.1409 77.4111 48.9662 75.4738 48.9662C71.5668 48.9662 69.1963 46.824 69.1963 44.0223C69.1963 40.8909 72.0344 38.6507 76.4415 38.6507C77.5771 38.6507 78.3788 38.7487 79.5793 38.9804C78.9456 36.6404 78.3769 34.8938 75.7067 34.8938C74.0042 34.8938 72.7025 35.4873 71.3989 36.2127C70.7652 36.6084 70.1296 36.1147 70.5972 35.3554C71.4313 34.1025 73.903 32.5538 77.0084 32.5538C80.9822 32.5538 82.3182 35.1256 83.0187 37.9272L84.6219 44.6177C84.956 46.1005 85.5572 46.3981 86.2577 46.3981C86.6241 46.3661 86.8913 46.4961 86.8913 46.8598L86.8932 46.856ZM80.6825 44.0882C80.5833 43.4288 80.316 42.5715 79.982 41.2866C79.8141 40.4953 78.0791 40.1995 77.0103 40.1995C74.3382 40.1995 72.8704 41.4844 72.9029 43.4947C72.9697 45.5051 74.405 47.0218 76.7431 47.0218C78.8464 47.0218 80.9497 45.4731 80.6825 44.0882Z" fill="#33495F"/>
<path id="Vector_6" d="M109.598 32.8477C110.467 32.8477 111.034 33.0135 111.034 33.5731C111.034 34.6282 109.732 34.3324 108.631 36.9343L103.922 47.8451C103.722 48.2747 103.521 48.5705 102.487 48.7344C101.551 48.9322 101.151 48.8004 100.985 48.3388L97.1444 37.8895L93.371 47.8432C93.205 48.2728 92.8041 48.5686 92.0025 48.7325C91.0005 48.9624 90.5672 48.7985 90.3993 48.3369L85.8242 36.9663C84.7898 34.3305 83.5205 34.6583 83.5205 33.6051C83.5205 33.0116 84.0225 32.8458 84.889 32.8458H89.3304C90.1988 32.8458 90.7657 33.0436 90.7657 33.6051C90.7657 34.6602 88.796 34.3305 89.8648 36.9663L92.8366 44.3501L96.9096 33.5391C97.0776 33.1774 97.2761 32.8797 97.946 32.7158C98.8145 32.518 99.1485 32.7478 99.3145 33.1774L103.556 44.4179L106.76 36.9362C107.896 34.3324 106.092 34.6282 106.092 33.5749C106.092 32.9815 106.627 32.8496 107.495 32.8496H109.598V32.8477Z" fill="#33495F"/>
<path id="Vector_7" d="M112.57 47.7792C112.07 46.4604 111.702 45.5391 111.368 44.3182C111.234 43.7247 111.368 43.3949 111.734 43.2631C112.169 43.0652 112.602 43.3949 113.204 43.9545C115.574 46.3926 117.41 47.2837 119.281 47.2837C120.617 47.2837 121.651 46.6243 121.651 45.4053C121.651 44.1203 119.882 43.231 117.076 42.0761C114.337 40.955 111.766 39.768 111.766 37.0323C111.766 33.9349 114.639 32.5161 117.176 32.5161C119.012 32.5161 120.115 32.9118 121.048 32.9457C121.649 32.9777 121.783 32.5161 122.283 32.5161C122.751 32.5161 122.984 32.9118 123.451 33.7031C123.919 34.5604 124.152 35.0879 124.419 35.7474C124.686 36.4388 124.619 36.9004 124.251 37.0983C123.684 37.3941 123.15 36.8345 122.046 36.0112C120.745 35.0879 119.075 34.1986 117.573 34.1986C115.969 34.1986 115.135 35.022 115.135 35.9791C115.135 37.2641 116.605 37.9895 119.51 39.1764C122.915 40.5613 125.32 41.8462 125.32 44.2842C125.32 46.922 122.749 48.9983 119.141 48.9983C116.737 48.9983 115.67 48.3388 114.967 48.3388C114.467 48.3388 114.299 48.9983 113.666 48.9983C113.165 48.9983 112.998 48.7665 112.564 47.7792H112.57Z" fill="#33495F"/>
</g>
<path id="Vector_8" d="M3.69156 0.887634H19.6822C33.1915 0.887634 44.1586 11.7137 44.1586 25.0494C44.1586 38.385 33.1915 49.2111 19.6822 49.2111H3.69156C1.85544 49.2111 0.366699 47.7415 0.366699 45.929V4.16974C0.366699 2.35723 1.85544 0.887634 3.69156 0.887634Z" fill="#33495F"/>
<path id="Vector_9" d="M13.2977 11.7873H20.1478C27.8206 11.7873 34.0504 17.937 34.0504 25.5111C34.0504 33.0852 27.8206 39.2349 20.1478 39.2349H13.2977C11.7212 39.2349 10.4424 37.9726 10.4424 36.4163V14.6078C10.4424 13.0516 11.7212 11.7892 13.2977 11.7892V11.7873Z" fill="#FDC776"/>
<g id="Group_2">
<path id="Vector_10" d="M13.2979 39.2329C13.2959 36.5857 13.9812 32.6404 15.4756 29.2547C19.1784 20.8705 29.7141 16.4315 37.2456 20.5935C37.6827 20.8347 38.0778 21.155 38.3641 21.56C39.5551 23.2463 38.4423 25.17 38.4423 25.17C38.4423 25.17 42.3359 26.5623 40.2574 32.5443C38.784 36.0883 35.7015 36.2749 35.7015 36.2749C35.7015 36.2749 34.2567 42.5282 26.7003 38.6884L26.4274 38.4717C24.8451 39.0822 22.6445 39.231 22.6445 39.231H13.2979V39.2329Z" fill="#F7F1DE"/>
<path id="Vector_11" d="M39.3852 25.5221C39.2898 25.5221 39.1905 25.5014 39.0989 25.4581C37.0395 24.4915 34.2911 25.3846 34.2643 25.394C33.9151 25.5108 33.5352 25.3243 33.4188 24.9795C33.3005 24.6347 33.4875 24.2617 33.8368 24.1449C33.9704 24.0996 37.1197 23.069 39.6734 24.2673C40.0074 24.4237 40.1487 24.8175 39.9903 25.1453C39.8758 25.3827 39.6372 25.5221 39.3871 25.5221H39.3852Z" fill="#33495F"/>
<path id="Vector_12" d="M36.3121 37.2471C36.2796 37.2471 36.2453 37.2452 36.2128 37.2395C35.8483 37.1849 35.5963 36.8495 35.6517 36.4896C35.8063 35.4703 35.6288 34.7261 35.1058 34.2118C34.077 33.2 31.8745 33.2773 31.111 33.3922C30.7465 33.4468 30.4048 33.2 30.3495 32.8401C30.2941 32.4803 30.5442 32.143 30.9087 32.0884C31.048 32.0677 34.3366 31.5929 36.0487 33.2773C36.8808 34.095 37.19 35.2424 36.9706 36.6837C36.9209 37.0115 36.6365 37.2452 36.3102 37.2452L36.3121 37.2471Z" fill="#33495F"/>
<path id="Vector_13" d="M26.8587 40.1937C26.7327 40.1937 26.6048 40.1579 26.4922 40.0844C25.284 39.2987 24.3507 37.5088 24.2476 37.3072C24.0816 36.9813 24.2152 36.5856 24.5454 36.4217C24.8756 36.2578 25.2764 36.3897 25.4425 36.7156C25.6772 37.1772 26.4579 38.481 27.227 38.9822C27.5343 39.1819 27.6202 39.5907 27.4179 39.896C27.29 40.0881 27.0763 40.1918 26.8606 40.1918L26.8587 40.1937Z" fill="#33495F"/>
</g>
</g>
</svg>
