<svg width="25" height="26" viewBox="0 0 25 26" fill="none" xmlns="http://www.w3.org/2000/svg">
<path d="M21.0938 8.3125C21.6309 8.3125 22.1354 8.41423 22.6074 8.61768C23.0794 8.82113 23.4904 9.10189 23.8403 9.45996C24.1903 9.81803 24.471 10.2331 24.6826 10.7051C24.8942 11.1771 25 11.6816 25 12.2188C25 12.6826 24.9227 13.1261 24.7681 13.5493C24.6134 13.9725 24.3978 14.3509 24.1211 14.6846C23.8444 15.0182 23.5148 15.3071 23.1323 15.5513C22.7498 15.7954 22.3307 15.9622 21.875 16.0518V17.2969C21.875 18.0212 21.7855 18.7251 21.6064 19.4087C21.4274 20.0923 21.1751 20.7433 20.8496 21.3618C20.5241 21.9803 20.1253 22.5378 19.6533 23.0342C19.1813 23.5306 18.6564 23.966 18.0786 24.3403C17.5008 24.7147 16.8701 24.9995 16.1865 25.1948C15.5029 25.3901 14.7949 25.4919 14.0625 25.5C13.3219 25.5 12.6139 25.3983 11.9385 25.1948C11.263 24.9914 10.6364 24.7065 10.0586 24.3403C9.48079 23.9741 8.95589 23.5387 8.48389 23.0342C8.01188 22.5296 7.61312 21.9722 7.2876 21.3618C6.96208 20.7515 6.70573 20.1045 6.51855 19.4209C6.33138 18.7373 6.24186 18.0293 6.25 17.2969V14.5015C5.24902 14.4119 4.36198 14.1719 3.58887 13.7812C2.81576 13.3906 2.16064 12.8779 1.62354 12.2432C1.08643 11.6084 0.683594 10.8719 0.415039 10.0337C0.146484 9.19548 0.00813802 8.28809 0 7.31152V0.5H3.90625C4.11784 0.5 4.30094 0.577311 4.45557 0.731934C4.61019 0.886556 4.6875 1.06966 4.6875 1.28125C4.6875 1.49284 4.61019 1.67594 4.45557 1.83057C4.30094 1.98519 4.11784 2.0625 3.90625 2.0625H1.5625V7.31152C1.5625 8.17415 1.6805 8.9554 1.9165 9.65527C2.15251 10.3551 2.50651 10.9533 2.97852 11.4497C3.45052 11.9461 4.02018 12.3286 4.6875 12.5972C5.35482 12.8657 6.13607 13 7.03125 13C7.85319 13 8.60189 12.8739 9.27734 12.6216C9.9528 12.3693 10.5265 12.0072 10.9985 11.5352C11.4705 11.0632 11.8408 10.4935 12.1094 9.82617C12.3779 9.15885 12.5081 8.40609 12.5 7.56787V2.0625H10.1562C9.94466 2.0625 9.76156 1.98519 9.60693 1.83057C9.45231 1.67594 9.375 1.49284 9.375 1.28125C9.375 1.06966 9.45231 0.886556 9.60693 0.731934C9.76156 0.577311 9.94466 0.5 10.1562 0.5H14.0625V7.31152C14.0625 8.28809 13.9242 9.19548 13.6475 10.0337C13.3708 10.8719 12.9679 11.6084 12.439 12.2432C11.91 12.8779 11.259 13.3906 10.4858 13.7812C9.71273 14.1719 8.82161 14.4119 7.8125 14.5015V17.2969C7.8125 18.1676 7.96712 19.0018 8.27637 19.7993C8.58561 20.5968 9.021 21.3049 9.58252 21.9233C10.144 22.5418 10.8032 23.0301 11.5601 23.3882C12.3169 23.7463 13.151 23.9294 14.0625 23.9375C14.9658 23.9375 15.7959 23.7544 16.5527 23.3882C17.3096 23.022 17.9688 22.5337 18.5303 21.9233C19.0918 21.313 19.5272 20.609 19.8364 19.8115C20.1457 19.014 20.3044 18.1758 20.3125 17.2969V16.0518C19.8568 15.9541 19.4377 15.7873 19.0552 15.5513C18.6727 15.3153 18.3431 15.0304 18.0664 14.6968C17.7897 14.3631 17.5741 13.9806 17.4194 13.5493C17.2648 13.118 17.1875 12.6745 17.1875 12.2188C17.1875 11.6816 17.2892 11.1771 17.4927 10.7051C17.6961 10.2331 17.9728 9.8221 18.3228 9.47217C18.6727 9.12223 19.0877 8.84147 19.5679 8.62988C20.048 8.41829 20.5566 8.3125 21.0938 8.3125ZM21.0938 14.5625C21.4193 14.5625 21.7244 14.5015 22.0093 14.3794C22.2941 14.2573 22.5423 14.0905 22.7539 13.8789C22.9655 13.6673 23.1323 13.4191 23.2544 13.1343C23.3765 12.8494 23.4375 12.5443 23.4375 12.2188C23.4375 11.8932 23.3765 11.5881 23.2544 11.3032C23.1323 11.0184 22.9655 10.7702 22.7539 10.5586C22.5423 10.347 22.2941 10.1802 22.0093 10.0581C21.7244 9.93604 21.4193 9.875 21.0938 9.875C20.7682 9.875 20.4631 9.93604 20.1782 10.0581C19.8934 10.1802 19.6452 10.347 19.4336 10.5586C19.222 10.7702 19.0552 11.0184 18.9331 11.3032C18.811 11.5881 18.75 11.8932 18.75 12.2188C18.75 12.5443 18.811 12.8494 18.9331 13.1343C19.0552 13.4191 19.222 13.6673 19.4336 13.8789C19.6452 14.0905 19.8934 14.2573 20.1782 14.3794C20.4631 14.5015 20.7682 14.5625 21.0938 14.5625Z" fill="#33495F"/>
</svg>
