<svg width="25" height="26" viewBox="0 0 25 26" fill="none" xmlns="http://www.w3.org/2000/svg">
<path d="M18.3919 17.8509C17.2918 18.951 14.8382 21.4046 13.4695 22.7733C12.9328 23.31 12.0657 23.3098 11.529 22.7731C10.1828 21.4269 7.78173 19.0258 6.60679 17.8509C3.35242 14.5965 3.35242 9.32015 6.60679 6.06578C9.86116 2.81141 15.1375 2.81141 18.3919 6.06578C21.6463 9.32015 21.6463 14.5965 18.3919 17.8509Z" stroke="#33495F" stroke-width="1.4" stroke-linecap="round" stroke-linejoin="round"/>
<path d="M15.6243 11.9583C15.6243 13.6842 14.2252 15.0833 12.4993 15.0833C10.7735 15.0833 9.37435 13.6842 9.37435 11.9583C9.37435 10.2324 10.7735 8.83333 12.4993 8.83333C14.2252 8.83333 15.6243 10.2324 15.6243 11.9583Z" stroke="#33495F" stroke-width="1.4" stroke-linecap="round" stroke-linejoin="round"/>
</svg>
