<svg width="13" height="13" viewBox="0 0 13 13" fill="none" xmlns="http://www.w3.org/2000/svg">
<path fill-rule="evenodd" clip-rule="evenodd" d="M6.56006 0.666504C6.76726 0.666504 6.96597 0.743327 7.11249 0.880072C7.259 1.01682 7.34131 1.20228 7.34131 1.39567V5.77067H12.0288C12.236 5.77067 12.4347 5.84749 12.5812 5.98424C12.7277 6.12098 12.8101 6.30645 12.8101 6.49984C12.8101 6.69322 12.7277 6.87869 12.5812 7.01544C12.4347 7.15218 12.236 7.229 12.0288 7.229H7.34131V11.604C7.34131 11.7974 7.259 11.9829 7.11249 12.1196C6.96597 12.2563 6.76726 12.3332 6.56006 12.3332C6.35286 12.3332 6.15414 12.2563 6.00763 12.1196C5.86112 11.9829 5.77881 11.7974 5.77881 11.604V7.229H1.09131C0.884108 7.229 0.685394 7.15218 0.538882 7.01544C0.392369 6.87869 0.310059 6.69322 0.310059 6.49984C0.310059 6.30645 0.392369 6.12098 0.538882 5.98424C0.685394 5.84749 0.884108 5.77067 1.09131 5.77067H5.77881V1.39567C5.77881 1.20228 5.86112 1.01682 6.00763 0.880072C6.15414 0.743327 6.35286 0.666504 6.56006 0.666504V0.666504Z" fill="#5281A2"/>
</svg>
