<svg width="25" height="26" viewBox="0 0 25 26" fill="none" xmlns="http://www.w3.org/2000/svg">
<path d="M11.5711 7.59807C11.9855 6.85321 12.1927 6.48242 12.5025 6.48242C12.8122 6.48242 13.0194 6.85321 13.4338 7.59807L13.5407 7.79001C13.6585 8.00158 13.7174 8.10627 13.809 8.17607C13.9017 8.24586 14.0162 8.27204 14.2452 8.32329L14.4524 8.37128C15.2572 8.5534 15.6596 8.64392 15.7556 8.95146C15.8516 9.26009 15.5768 9.58071 15.0282 10.222L14.8864 10.3877C14.7305 10.5699 14.652 10.6604 14.6171 10.7738C14.5822 10.8872 14.5942 11.0083 14.6171 11.2515L14.6389 11.4728C14.7218 12.3289 14.7632 12.7575 14.5135 12.9473C14.2626 13.137 13.8853 12.9636 13.1317 12.6168L12.9376 12.5274C12.7228 12.4293 12.6159 12.3802 12.5025 12.3802C12.389 12.3802 12.2822 12.4293 12.0673 12.5274L11.8732 12.6168C11.1196 12.9647 10.7423 13.137 10.4915 12.9473C10.2406 12.7575 10.2832 12.3289 10.3661 11.4728L10.3879 11.2515C10.4108 11.0083 10.4228 10.8872 10.3879 10.7738C10.353 10.6615 10.2744 10.5699 10.1185 10.3877L9.97672 10.222C9.42817 9.58071 9.15334 9.26009 9.24931 8.95146C9.34528 8.64392 9.7477 8.5534 10.5525 8.37128L10.7597 8.32329C10.9888 8.27204 11.1033 8.24695 11.196 8.17607C11.2876 8.10627 11.3465 8.00158 11.4642 7.79001L11.5711 7.59807Z" stroke="#33495F" stroke-width="1.4" stroke-linejoin="round"/>
<path d="M20.1351 9.75504C20.1351 10.7575 19.9376 11.7502 19.554 12.6764C19.1703 13.6026 18.608 14.4442 17.8991 15.1531C17.1903 15.8619 16.3487 16.4242 15.4225 16.8079C14.4963 17.1915 13.5036 17.389 12.5011 17.389C11.4986 17.389 10.5059 17.1915 9.57975 16.8079C8.65356 16.4242 7.812 15.8619 7.10312 15.1531C6.39424 14.4442 5.83193 13.6026 5.44829 12.6764C5.06465 11.7502 4.86719 10.7575 4.86719 9.75504C4.86719 7.73039 5.67148 5.78867 7.10312 4.35702C8.53476 2.92538 10.4765 2.12109 12.5011 2.12109C14.5258 2.12109 16.4675 2.92538 17.8991 4.35702C19.3308 5.78867 20.1351 7.73039 20.1351 9.75504Z" stroke="#33495F" stroke-width="1.4" stroke-linejoin="round"/>
<path d="M5.36505 13.0273L2.6779 15.8094C2.089 16.419 1.79454 16.7244 1.69203 16.9828C1.45974 17.5706 1.65931 18.2239 2.16424 18.5336C2.38672 18.6688 2.78696 18.7114 3.58743 18.7964C4.04001 18.8444 4.26576 18.8673 4.45443 18.9404C4.66537 19.0222 4.85604 19.1488 5.01326 19.3115C5.17049 19.4741 5.29051 19.669 5.36505 19.8826C5.43484 20.0789 5.45775 20.3123 5.50464 20.7813C5.58534 21.6101 5.62678 22.0245 5.75765 22.2535C6.05647 22.777 6.6879 22.982 7.255 22.7421C7.50582 22.6374 7.80028 22.3331 8.38918 21.7224L12.5017 17.4638L16.6142 21.7224C17.2031 22.3331 17.4976 22.6374 17.7484 22.7421C18.3155 22.982 18.9469 22.777 19.2457 22.2535C19.3766 22.0245 19.417 21.6101 19.4988 20.7813C19.5456 20.3123 19.5686 20.0789 19.6383 19.8826C19.7954 19.4442 20.1247 19.1029 20.549 18.9404C20.7376 18.8673 20.9634 18.8444 21.416 18.7964C22.2164 18.7114 22.6167 18.6688 22.8392 18.5336C23.3441 18.2239 23.5437 17.5706 23.3114 16.9828C23.2089 16.7244 22.9144 16.419 22.3255 15.8094L19.6383 13.0273" stroke="#33495F" stroke-width="1.4" stroke-linejoin="round"/>
</svg>
