<svg width="24" height="24" viewBox="0 0 24 24" fill="none" xmlns="http://www.w3.org/2000/svg">
<g clip-path="url(#clip0_1719_63529)">
<path d="M22.5833 1.65866C22.416 1.49138 22.1407 1.49138 21.9734 1.65866L19.1681 4.46048C18.5199 4.08411 17.6766 4.16775 17.1225 4.72184L16.889 4.95532C16.1398 4.33502 15.0281 4.36638 14.3277 5.07032L11.7105 7.68745L7.29523 12.1062L7.16629 11.9773C6.62265 11.4337 5.67129 11.4302 5.12417 11.9773C4.85235 12.2491 4.7025 12.6115 4.7025 12.9984C4.7025 13.3852 4.85235 13.7476 5.12417 14.0194L6.4275 15.3227L4.13098 17.6193L3.74417 17.2324C3.20053 16.6888 2.24917 16.6888 1.70205 17.2324C1.14098 17.7935 1.14098 18.71 1.70205 19.2746L5.09629 22.6688C5.36811 22.9406 5.73053 23.0905 6.11735 23.0905C6.50417 23.0905 6.86659 22.9406 7.13841 22.6688C7.41023 22.397 7.56008 22.0346 7.56008 21.6477C7.56008 21.2609 7.41023 20.8985 7.13841 20.6267L6.72023 20.2085L9.01674 17.912L10.0448 18.94C10.3166 19.2118 10.679 19.3617 11.0658 19.3617C11.4527 19.3617 11.8151 19.2118 12.0869 18.94C12.3587 18.6682 12.5086 18.3058 12.5086 17.919C12.5086 17.5496 12.3692 17.2046 12.1183 16.9362L19.1576 9.89684C19.8546 9.19987 19.8895 8.09866 19.2831 7.34942L19.5166 7.11593C20.0707 6.56184 20.1543 5.71851 19.778 5.07032L22.5833 2.26851C22.754 2.09775 22.754 1.82593 22.5833 1.65866ZM6.52856 22.052C6.30901 22.2715 5.92917 22.2715 5.70962 22.052L2.31538 18.6577C2.08886 18.4312 2.08886 18.0653 2.31538 17.8388C2.42341 17.7308 2.56977 17.6681 2.72659 17.6681C2.87992 17.6681 3.02629 17.7273 3.13432 17.8388L6.52856 21.2331C6.63659 21.3411 6.69932 21.4874 6.69932 21.6408C6.69932 21.7976 6.64008 21.944 6.52856 22.052ZM17.7358 5.33169C18.0599 5.0076 18.5861 5.0076 18.9067 5.33169C19.2308 5.65578 19.2308 6.18199 18.9067 6.5026L18.6872 6.72214L17.5163 5.55123L17.7358 5.33169ZM6.11038 19.5952L4.74083 18.2256L7.03386 15.9326L8.40341 17.3021L6.11038 19.5952ZM11.477 18.3267C11.2575 18.5462 10.8777 18.5462 10.6581 18.3267L9.32341 16.992L7.34401 15.0126L5.73401 13.4026C5.62598 13.2946 5.56326 13.1482 5.56326 12.9949C5.56326 12.8415 5.6225 12.6952 5.73401 12.5837C5.84204 12.4756 5.98841 12.4129 6.14174 12.4129C6.29508 12.4129 6.44144 12.4721 6.55295 12.5837L11.477 17.5077C11.5851 17.6158 11.6478 17.7621 11.6478 17.9155C11.6443 18.0723 11.5851 18.2187 11.477 18.3267ZM18.5478 9.28351L11.5119 16.3229L7.90508 12.7161L8.67174 11.9494L8.97841 12.2561C9.06204 12.3397 9.17356 12.3815 9.28507 12.3815C9.39659 12.3815 9.50462 12.3397 9.59174 12.2561C9.75901 12.0888 9.75901 11.8135 9.59174 11.6462L9.28507 11.3396L10.348 10.2767L11.268 11.1932C11.3516 11.2768 11.4631 11.3187 11.5746 11.3187C11.6861 11.3187 11.7942 11.2768 11.8813 11.1932C12.0486 11.0259 12.0486 10.7506 11.8813 10.5834L10.9613 9.66684L12.0242 8.60396L12.6375 9.21729C12.7211 9.30093 12.8327 9.34275 12.9442 9.34275C13.0557 9.34275 13.1637 9.30093 13.2508 9.21729C13.4181 9.05002 13.4181 8.77472 13.2508 8.60745L12.6375 7.99411L13.7004 6.93123L14.6204 7.85123C14.704 7.93487 14.8155 7.97669 14.927 7.97669C15.0386 7.97669 15.1466 7.93487 15.2337 7.85123C15.401 7.68396 15.401 7.40866 15.2337 7.24138L14.3137 6.32138L14.9514 5.68366C15.3592 5.27593 16.0213 5.27593 16.429 5.68366L16.6067 5.86138L18.391 7.64563L18.5548 7.80942C18.9555 8.21366 18.9555 8.87578 18.5478 9.28351Z" fill="#33495F"/>
</g>
<defs>
<clipPath id="clip0_1719_63529">
<rect width="23" height="23" fill="white" transform="translate(0.5 0.808594)"/>
</clipPath>
</defs>
</svg>
