<svg width="16" height="16" viewBox="0 0 16 16" fill="none" xmlns="http://www.w3.org/2000/svg">
<path d="M13.5556 12.638H2.4445C2.21672 12.638 2.02783 12.4491 2.02783 12.2214C2.02783 11.9936 2.21672 11.8047 2.4445 11.8047H13.5556C13.7834 11.8047 13.9723 11.9936 13.9723 12.2214C13.9723 12.4491 13.7834 12.638 13.5556 12.638Z" fill="#33495F"/>
<path d="M13.0002 12.6398H3.00016C2.77238 12.6398 2.5835 12.4509 2.5835 12.2231V3.3342C2.5835 1.65642 3.54461 0.695312 5.22239 0.695312H10.7779C12.4557 0.695312 13.4168 1.65642 13.4168 3.3342V12.2231C13.4168 12.4509 13.2279 12.6398 13.0002 12.6398ZM3.41683 11.8064H12.5835V3.3342C12.5835 2.10087 12.0113 1.52865 10.7779 1.52865H5.22239C3.98905 1.52865 3.41683 2.10087 3.41683 3.3342V11.8064Z" fill="#33495F"/>
<path d="M9.66699 12.6402H6.33366C6.10588 12.6402 5.91699 12.4513 5.91699 12.2235V8.85686C5.91699 8.34019 6.33922 7.91797 6.85588 7.91797H9.15033C9.667 7.91797 10.0892 8.34019 10.0892 8.85686V12.2235C10.0837 12.4513 9.89477 12.6402 9.66699 12.6402ZM6.75033 11.8069H9.25033V8.85686C9.25033 8.8013 9.20588 8.7513 9.14477 8.7513H6.85032C6.79477 8.7513 6.74477 8.79575 6.74477 8.85686V11.8069H6.75033Z" fill="#33495F"/>
<path d="M8.00016 6.52908C7.77239 6.52908 7.5835 6.34019 7.5835 6.11241V3.33464C7.5835 3.10686 7.77239 2.91797 8.00016 2.91797C8.22794 2.91797 8.41683 3.10686 8.41683 3.33464V6.11241C8.41683 6.34019 8.22794 6.52908 8.00016 6.52908Z" fill="#33495F"/>
<path d="M9.38927 5.13802H6.61149C6.38371 5.13802 6.19482 4.94913 6.19482 4.72135C6.19482 4.49358 6.38371 4.30469 6.61149 4.30469H9.38927C9.61705 4.30469 9.80594 4.49358 9.80594 4.72135C9.80594 4.94913 9.61705 5.13802 9.38927 5.13802Z" fill="#33495F"/>
</svg>
