<svg width="16" height="16" viewBox="0 0 16 16" fill="none" xmlns="http://www.w3.org/2000/svg">
<path d="M11.6335 15.1654C10.8802 15.1654 10.0868 14.9854 9.26683 14.6387C8.46683 14.2987 7.66016 13.832 6.8735 13.2654C6.0935 12.692 5.34016 12.052 4.62683 11.352C3.92016 10.6387 3.28016 9.88536 2.7135 9.11203C2.14016 8.31203 1.68016 7.51203 1.3535 6.7387C1.00683 5.91203 0.833496 5.11203 0.833496 4.3587C0.833496 3.8387 0.926829 3.34536 1.10683 2.88536C1.2935 2.41203 1.5935 1.97203 2.00016 1.59203C2.5135 1.08536 3.10016 0.832031 3.72683 0.832031C3.98683 0.832031 4.2535 0.892031 4.48016 0.998698C4.74016 1.1187 4.96016 1.2987 5.12016 1.5387L6.66683 3.7187C6.80683 3.91203 6.9135 4.0987 6.98683 4.28536C7.0735 4.48536 7.12016 4.68536 7.12016 4.8787C7.12016 5.13203 7.04683 5.3787 6.90683 5.61203C6.80683 5.79203 6.6535 5.98536 6.46016 6.1787L6.00683 6.65203C6.0135 6.67203 6.02016 6.68536 6.02683 6.6987C6.10683 6.8387 6.26683 7.0787 6.5735 7.4387C6.90016 7.81203 7.20683 8.15203 7.5135 8.46536C7.90683 8.85203 8.2335 9.1587 8.54016 9.41203C8.92016 9.73203 9.16683 9.89203 9.3135 9.96536L9.30016 9.9987L9.78683 9.5187C9.9935 9.31203 10.1935 9.1587 10.3868 9.0587C10.7535 8.83203 11.2202 8.79203 11.6868 8.98536C11.8602 9.0587 12.0468 9.1587 12.2468 9.2987L14.4602 10.872C14.7068 11.0387 14.8868 11.252 14.9935 11.5054C15.0935 11.7587 15.1402 11.992 15.1402 12.2254C15.1402 12.5454 15.0668 12.8654 14.9268 13.1654C14.7868 13.4654 14.6135 13.7254 14.3935 13.9654C14.0135 14.3854 13.6002 14.6854 13.1202 14.8787C12.6602 15.0654 12.1602 15.1654 11.6335 15.1654ZM3.72683 1.83203C3.36016 1.83203 3.02016 1.99203 2.6935 2.31203C2.38683 2.5987 2.1735 2.91203 2.04016 3.25203C1.90016 3.5987 1.8335 3.96536 1.8335 4.3587C1.8335 4.9787 1.98016 5.65203 2.2735 6.34537C2.5735 7.05203 2.9935 7.78536 3.52683 8.5187C4.06016 9.25203 4.66683 9.96536 5.3335 10.6387C6.00016 11.2987 6.72016 11.912 7.46016 12.452C8.18016 12.9787 8.92016 13.4054 9.6535 13.712C10.7935 14.1987 11.8602 14.312 12.7402 13.9454C13.0802 13.8054 13.3802 13.592 13.6535 13.2854C13.8068 13.1187 13.9268 12.9387 14.0268 12.7254C14.1068 12.5587 14.1468 12.3854 14.1468 12.212C14.1468 12.1054 14.1268 11.9987 14.0735 11.8787C14.0535 11.8387 14.0135 11.7654 13.8868 11.6787L11.6735 10.1054C11.5402 10.012 11.4202 9.94536 11.3068 9.8987C11.1602 9.8387 11.1002 9.7787 10.8735 9.9187C10.7402 9.98536 10.6202 10.0854 10.4868 10.2187L9.98016 10.7187C9.72016 10.972 9.32016 11.032 9.0135 10.9187L8.8335 10.8387C8.56016 10.692 8.24016 10.4654 7.88683 10.1654C7.56683 9.89203 7.22016 9.57203 6.80016 9.1587C6.4735 8.82536 6.14683 8.47203 5.80683 8.0787C5.4935 7.71203 5.26683 7.3987 5.12683 7.1387L5.04683 6.9387C5.00683 6.78536 4.9935 6.6987 4.9935 6.60536C4.9935 6.36536 5.08016 6.15203 5.24683 5.98536L5.74683 5.46536C5.88016 5.33203 5.98016 5.20536 6.04683 5.09203C6.10016 5.00536 6.12016 4.93203 6.12016 4.86537C6.12016 4.81203 6.10016 4.73203 6.06683 4.65203C6.02016 4.54536 5.94683 4.42536 5.8535 4.2987L4.30683 2.11203C4.24016 2.0187 4.16016 1.95203 4.06016 1.90536C3.9535 1.8587 3.84016 1.83203 3.72683 1.83203ZM9.30016 10.0054L9.1935 10.4587L9.3735 9.99203C9.34016 9.98536 9.3135 9.99203 9.30016 10.0054Z" fill="#33495F"/>
</svg>
