<svg width="15" height="14" viewBox="0 0 15 14" fill="none" xmlns="http://www.w3.org/2000/svg">
<g clip-path="url(#clip0_432_4573)">
<path fill-rule="evenodd" clip-rule="evenodd" d="M11.875 0.683594C11.5608 0.683594 11.2496 0.741358 10.9593 0.85359C10.669 0.965821 10.4053 1.13032 10.1831 1.3377L1.74557 9.2127C1.66866 9.28448 1.61316 9.37375 1.58454 9.47169L0.647037 12.68C0.588024 12.882 0.649479 13.098 0.808073 13.246C0.966667 13.394 1.19808 13.4514 1.41446 13.3963L4.85196 12.5213C4.9569 12.4946 5.05255 12.4428 5.12946 12.371L13.567 4.49599C13.7891 4.28861 13.9654 4.04242 14.0856 3.77147C14.2059 3.50052 14.2678 3.21012 14.2678 2.91684C14.2678 2.62357 14.2059 2.33317 14.0856 2.06222C13.9654 1.79126 13.7891 1.54507 13.567 1.3377C13.3448 1.13032 13.081 0.965821 12.7907 0.85359C12.5004 0.741358 12.1892 0.683594 11.875 0.683594ZM11.4377 1.93145C11.5763 1.87785 11.7249 1.85026 11.875 1.85026C12.0251 1.85026 12.1737 1.87785 12.3123 1.93145C12.451 1.98505 12.577 2.06361 12.6831 2.16266C12.7892 2.2617 12.8734 2.37928 12.9308 2.50868C12.9882 2.63808 13.0178 2.77678 13.0178 2.91684C13.0178 3.05691 12.9882 3.1956 12.9308 3.32501C12.8734 3.45441 12.7892 3.57199 12.6831 3.67103L4.36294 11.4365L2.14078 12.0021L2.74682 9.92812L11.067 2.16266C11.1731 2.06361 11.299 1.98505 11.4377 1.93145Z" fill="#F7F1DE"/>
</g>
<defs>
<clipPath id="clip0_432_4573">
<rect width="15" height="14" fill="white"/>
</clipPath>
</defs>
</svg>
