<svg width="109" height="109" viewBox="0 0 109 109" fill="none" xmlns="http://www.w3.org/2000/svg">
<g id="fi_3636096">
<g id="Group">
<path id="Vector" d="M41.6942 37.6494C42.8406 37.6494 43.7734 36.1528 43.7734 34.313C43.7734 32.4733 42.8406 30.9766 41.6942 30.9766C40.5478 30.9766 39.6152 32.4733 39.6152 34.313C39.6152 36.1528 40.5478 37.6494 41.6942 37.6494Z" fill="#33495F"/>
<path id="Vector_2" d="M62.4991 37.6494C63.6455 37.6494 64.5781 36.1528 64.5781 34.313C64.5781 32.4733 63.6455 30.9766 62.4991 30.9766C61.3527 30.9766 60.4199 32.4733 60.4199 34.313C60.4199 36.1528 61.3527 37.6494 62.4991 37.6494Z" fill="#33495F"/>
<path id="Vector_3" d="M88.4252 66.346C88.9245 65.3364 89.192 64.2182 89.192 63.0783C89.192 60.4618 87.7745 58.0415 85.5654 56.7282C85.6386 56.3693 85.6754 56.0017 85.6754 55.6275C85.6754 52.7488 83.4446 50.3812 80.6209 50.1629C79.9441 47.5219 77.8695 45.48 75.219 44.8461V35.9975C76.2697 35.7017 77.2449 35.1402 78.0481 34.337L82.1569 30.2283C84.6871 27.698 84.6871 23.5811 82.1569 21.0509L73.5072 12.4013C72.2815 11.1756 70.6518 10.5005 68.9184 10.5005C67.1851 10.5005 65.5554 11.1755 64.3297 12.4013C63.4274 13.3036 62.8325 14.4409 62.5768 15.6508C61.9577 15.571 61.3329 15.5292 60.7078 15.5292H43.4844C42.8593 15.5292 42.2345 15.5708 41.6154 15.6508C41.3598 14.4404 40.7648 13.3026 39.8621 12.3999C38.6349 11.1746 37.0052 10.5 35.273 10.5C33.5421 10.5 31.9129 11.1746 30.6852 12.4004L22.0342 21.0512C19.5063 23.5812 19.5063 27.698 22.0347 30.2287L26.1441 34.3363C26.956 35.1484 27.9345 35.7001 28.9728 35.9916V44.8458C26.3211 45.4793 24.2466 47.5214 23.5708 50.1629C20.7469 50.3805 18.5152 52.7484 18.5152 55.6275C18.5152 56.001 18.5522 56.3685 18.6258 56.728C16.4175 58.041 15.0004 60.4615 15.0004 63.0783C15.0004 64.2204 15.2677 65.3398 15.767 66.3499C14.1658 67.2676 13.084 68.9922 13.084 70.9656C13.084 72.3886 13.6378 73.7246 14.6422 74.7268C15.4175 75.5023 16.3915 76.0072 17.45 76.1975L21.7501 88.8673C23.7057 94.6289 29.1079 98.5 35.1923 98.5H68.9994C75.0838 98.5 80.4858 94.6289 82.4416 88.8671L86.7421 76.1961C89.2207 75.7455 91.1065 73.5723 91.1065 70.9656C91.1065 69.544 90.5537 68.2084 89.5489 67.2033C89.2091 66.8643 88.831 66.5782 88.4252 66.346ZM66.1528 14.224C66.8915 13.4853 67.8738 13.0785 68.9184 13.0785C69.9631 13.0785 70.9454 13.4853 71.6841 14.224L80.3339 22.8736C81.8589 24.3987 81.8589 26.88 80.334 28.4051L76.2252 32.5138C75.2711 33.4678 73.9154 33.8602 72.5995 33.5636C71.2833 33.2667 70.2271 32.3307 69.7746 31.0595L65.2334 18.3012C64.73 16.8865 65.0908 15.286 66.1528 14.224ZM62.5544 18.2507C62.6149 18.559 62.6978 18.865 62.8048 19.1658L67.346 31.924C68.0965 34.0331 69.8488 35.5864 72.0326 36.0786C72.2351 36.1243 72.4381 36.1578 72.6411 36.184V45.6617C72.6411 49.506 70.797 53.0523 67.7846 55.2721C67.7856 55.2186 67.7885 55.1653 67.7885 55.1117V47.5148C67.7885 43.1102 64.3947 39.4853 60.0846 39.1115C59.4339 37.7834 58.2051 36.7891 56.7284 36.456V18.1072H60.7078C61.3265 18.1072 61.9444 18.1562 62.5544 18.2507ZM53.3852 55.1119C53.3852 54.4 52.8081 53.8228 52.0962 53.8228C51.3843 53.8228 50.8071 54.4 50.8071 55.1119C50.8071 56.6902 50.192 58.1752 49.0763 59.2924C47.9581 60.4092 46.4729 61.0244 44.8946 61.0244C41.6345 61.0244 38.9821 58.372 38.9821 55.1119V47.515C38.9821 44.6992 40.979 42.3417 43.6306 41.7823C43.878 44.2279 45.9138 46.1532 48.4064 46.2258V47.1107C48.4064 49.1452 50.0615 50.8004 52.096 50.8004C54.1303 50.8004 55.7855 49.1452 55.7855 47.1107V46.2258C58.2778 46.1532 60.3139 44.2281 60.5612 41.7825C63.2134 42.3423 65.2102 44.6995 65.2102 47.515V55.1119C65.2102 56.6902 64.5953 58.1754 63.4796 59.2924C62.3612 60.4092 60.8762 61.0244 59.2979 61.0244C56.0376 61.0244 53.3852 58.372 53.3852 55.1119ZM53.8056 61.5813C53.2519 61.727 52.6787 61.8059 52.0953 61.8059C51.514 61.8059 50.9426 61.7273 50.39 61.5821C50.5646 61.4334 50.7354 61.2793 50.8994 61.1153C51.3602 60.654 51.7614 60.1492 52.0993 59.61C52.5644 60.3518 53.1413 61.0165 53.8056 61.5813ZM48.5523 38.912H48.752H55.4391H55.6396C56.9458 38.912 58.0083 39.9747 58.0083 41.2808C58.0083 42.5868 56.9456 43.6495 55.6396 43.6495H54.4964C53.7845 43.6495 53.2073 44.2267 53.2073 44.9386V47.1104C53.2073 47.7233 52.7087 48.2219 52.096 48.2219C51.4831 48.2219 50.9845 47.7233 50.9845 47.1104V44.9386C50.9845 44.2267 50.4073 43.6495 49.6954 43.6495H48.5525C47.2462 43.6495 46.1835 42.5868 46.1835 41.2808C46.1835 39.9747 47.2462 38.912 48.5523 38.912ZM54.1501 18.1072V36.3338H50.0411V18.1072H54.1501ZM23.8581 28.4058C22.3341 26.8805 22.3341 24.3987 23.8578 22.8738L32.5076 14.2242C33.2477 13.4851 34.2299 13.0781 35.273 13.0781C36.3174 13.0781 37.3001 13.4851 38.0397 14.2233C39.101 15.2848 39.4618 16.8853 38.9587 18.3005L35.2823 28.6302C35.0436 29.3009 35.3939 30.0382 36.0645 30.277C36.7345 30.5154 37.4724 30.1656 37.7113 29.4948L41.3878 19.1646C41.4946 18.8641 41.5773 18.5587 41.6376 18.2509C42.2476 18.1562 42.8656 18.1074 43.4842 18.1074H47.4629V36.4564C45.9865 36.7897 44.7581 37.784 44.1074 39.1117C39.7977 39.485 36.4038 43.1102 36.4038 47.5152V55.112C36.4038 55.1657 36.4069 55.2184 36.4079 55.2719C33.3955 53.0523 31.5511 49.506 31.5511 45.662V36.1845C32.8121 36.0265 34.038 35.5002 35.053 34.5982C35.5853 34.1254 35.6335 33.3107 35.1606 32.7784C34.6878 32.2461 33.873 32.198 33.3408 32.6708C31.9832 33.8771 29.6019 34.1479 27.967 32.5131L23.8581 28.4058ZM17.5785 63.0783C17.5785 61.1062 18.8157 59.3056 20.6571 58.5977C20.9904 58.4695 21.2556 58.2089 21.3897 57.8779C21.5236 57.5468 21.5141 57.1751 21.3635 56.8512C21.1845 56.4657 21.0935 56.0541 21.0935 55.6277C21.0935 54.027 22.3958 52.7247 23.9965 52.7247C24.1488 52.7247 24.303 52.7366 24.4545 52.7598C24.8067 52.8136 25.1659 52.7194 25.4463 52.499C25.7264 52.2789 25.9031 51.9523 25.9339 51.5972C26.0973 49.7172 27.3778 48.1284 29.0926 47.5035C29.7125 52.3605 32.7546 56.618 37.228 58.7572C38.5944 61.6198 41.5171 63.6027 44.895 63.6027C45.804 63.6027 46.6907 63.4583 47.5312 63.1847C48.9196 63.9712 50.4842 64.3842 52.0955 64.3842C53.7099 64.3842 55.276 63.9703 56.6643 63.1823C57.4941 63.4537 58.3789 63.6025 59.2981 63.6025C61.5643 63.6025 63.6964 62.7197 65.3029 61.1155C66 60.4175 66.5605 59.6196 66.9718 58.7548C71.4436 56.6135 74.4834 52.3547 75.1011 47.4968C76.8319 48.1112 78.0914 49.6822 78.259 51.5977C78.2901 51.953 78.467 52.2795 78.7476 52.4995C79.0283 52.7195 79.387 52.8136 79.7399 52.7593C79.8892 52.7362 80.0422 52.7245 80.1946 52.7245C81.7953 52.7245 83.0978 54.0268 83.0978 55.6275C83.0978 56.0563 83.0074 56.4669 82.8291 56.848C82.6776 57.172 82.6674 57.5444 82.8011 57.8761C82.9347 58.2079 83.2002 58.4693 83.5342 58.5977C85.3767 59.3061 86.6145 61.1067 86.6145 63.0783C86.6145 63.993 86.3474 64.8845 85.8605 65.6495C85.8368 65.6492 85.8134 65.6478 85.7897 65.6478H76.4622C76.0669 63.5989 74.261 62.0462 72.0985 62.0462H66.065C63.9023 62.0462 62.0965 63.5989 61.7012 65.6478H42.4915C42.0961 63.5989 40.2903 62.0462 38.1277 62.0462H32.0942C29.9315 62.0462 28.1258 63.5989 27.7305 65.6478H18.4035C18.3789 65.6478 18.3547 65.6494 18.3301 65.6497C17.8448 64.8855 17.5785 63.994 17.5785 63.0783ZM73.9645 66.4914V68.0682C73.9645 68.5142 73.6194 68.8973 73.2108 68.9047C73.0032 68.9086 72.8057 68.8304 72.6574 68.6847C72.5091 68.5389 72.4273 68.3442 72.4273 68.1362C72.4273 67.4243 71.8503 66.8472 71.1382 66.8472C70.4261 66.8472 69.8491 67.4243 69.8491 68.1362C69.8491 68.5601 69.5044 68.9047 69.0807 68.9047C68.6568 68.9047 68.3121 68.5599 68.3121 68.1362C68.3121 67.4243 67.7351 66.8472 67.023 66.8472C66.3109 66.8472 65.7339 67.4243 65.7339 68.1362C65.7339 68.3442 65.6521 68.5389 65.5038 68.6847C65.3556 68.8302 65.158 68.9086 64.9504 68.9047C64.542 68.8973 64.1969 68.5142 64.1969 68.0682V66.4914C64.1969 65.4618 65.0344 64.6245 66.0638 64.6245H72.0973C73.127 64.6245 73.9645 65.4618 73.9645 66.4914ZM39.9946 66.4914V68.0682C39.9946 68.5142 39.6495 68.8973 39.2411 68.9047C39.0342 68.909 38.8362 68.8304 38.6879 68.6847C38.5394 68.5389 38.4577 68.3442 38.4577 68.1362C38.4577 67.4243 37.8806 66.8472 37.1687 66.8472C36.4568 66.8472 35.8796 67.4243 35.8796 68.1362C35.8796 68.5601 35.5348 68.9047 35.1111 68.9047C34.6875 68.9047 34.3427 68.5599 34.3427 68.1362C34.3427 67.4243 33.7655 66.8472 33.0536 66.8472C32.3417 66.8472 31.7646 67.4243 31.7646 68.1362C31.7646 68.3442 31.6828 68.5389 31.5344 68.6847C31.3861 68.8302 31.1855 68.9086 30.981 68.9047C30.5726 68.8973 30.2275 68.5142 30.2275 68.0682V66.4914C30.2275 65.4618 31.065 64.6245 32.0944 64.6245H38.1279C39.1571 64.6245 39.9946 65.4618 39.9946 66.4914ZM85.7888 73.7053H77.7846C77.0725 73.7053 76.4956 74.2825 76.4956 74.9944C76.4956 75.7063 77.0725 76.2834 77.7846 76.2834H83.99L80.0001 88.0385C78.3997 92.7537 73.979 95.9219 68.9996 95.9219H35.1923C30.2127 95.9219 25.7919 92.7537 24.1914 88.0385L20.2017 76.2834H72.6284C73.3404 76.2834 73.9174 75.7063 73.9174 74.9944C73.9174 74.2825 73.3404 73.7053 72.6284 73.7053H18.4035C17.6705 73.7053 16.9821 73.4207 16.4642 72.9027C15.9471 72.3865 15.6621 71.6987 15.6621 70.9656C15.6621 69.455 16.8919 68.2259 18.4035 68.2259H27.6571C27.7386 70.0035 29.1748 71.4503 30.9337 71.4825C31.7118 71.4953 32.4521 71.2477 33.055 70.7752C33.6227 71.2185 34.3367 71.483 35.111 71.483C35.8853 71.483 36.5994 71.2185 37.1671 70.7752C37.7697 71.2477 38.5093 71.4955 39.2882 71.4825C41.0472 71.4503 42.4835 70.0036 42.565 68.2259H61.627C61.7085 70.0035 63.1448 71.4503 64.9038 71.4825C65.6726 71.4959 66.422 71.2478 67.0249 70.7752C67.5926 71.2185 68.3066 71.483 69.081 71.483C69.8555 71.483 70.5693 71.2185 71.137 70.7752C71.7398 71.2477 72.4806 71.4955 73.2581 71.4825C75.0173 71.4503 76.4536 70.0036 76.5351 68.2259H85.789C86.5209 68.2259 87.2095 68.5109 87.7271 69.0274C88.2439 69.5444 88.5285 70.2327 88.5285 70.9656C88.5285 72.4762 87.2994 73.7053 85.7888 73.7053Z" fill="#33495F"/>
<path id="Vector_4" d="M88.2966 38.4844C85.5355 38.4844 83.2891 40.7308 83.2891 43.492C83.2891 46.2531 85.5353 48.4995 88.2966 48.4995C91.058 48.4995 93.3042 46.2531 93.3042 43.492C93.3042 40.7308 91.058 38.4844 88.2966 38.4844ZM88.2966 45.9214C86.957 45.9214 85.8672 44.8315 85.8672 43.492C85.8672 42.1524 86.957 41.0625 88.2966 41.0625C89.6362 41.0625 90.7261 42.1524 90.7261 43.492C90.7261 44.8315 89.6362 45.9214 88.2966 45.9214Z" fill="#33495F"/>
<path id="Vector_5" d="M91.8551 21.8926C88.0989 21.8926 85.043 24.9485 85.043 28.7045C85.043 32.4605 88.0987 35.5164 91.8551 35.5164C95.6112 35.5164 98.667 32.4607 98.667 28.7045C98.667 24.9483 95.6112 21.8926 91.8551 21.8926ZM91.8551 32.9385C89.5205 32.9385 87.6211 31.0392 87.6211 28.7047C87.6211 26.3701 89.5205 24.4709 91.8551 24.4709C94.1896 24.4709 96.0889 26.3703 96.0889 28.7047C96.0889 31.0391 94.1896 32.9385 91.8551 32.9385Z" fill="#33495F"/>
<path id="Vector_6" d="M23.0658 38.2947C23.0658 34.9682 20.3595 32.2617 17.0328 32.2617C13.7062 32.2617 11 34.9682 11 38.2947C11 41.6212 13.7063 44.3277 17.033 44.3277C20.3596 44.3277 23.0658 41.6213 23.0658 38.2947ZM13.5781 38.2947C13.5781 36.3898 15.1279 34.8398 17.033 34.8398C18.938 34.8398 20.4878 36.3896 20.4878 38.2947C20.4878 40.1998 18.938 41.7496 17.033 41.7496C15.1279 41.7496 13.5781 40.1998 13.5781 38.2947Z" fill="#33495F"/>
</g>
</g>
</svg>
