<svg width="24" height="24" viewBox="0 0 24 24" fill="none" xmlns="http://www.w3.org/2000/svg">
<g clip-path="url(#clip0_1719_58694)">
<path d="M12.0007 23.2797C18.2305 23.2797 23.2807 18.2295 23.2807 11.9997C23.2807 5.76995 18.2305 0.719727 12.0007 0.719727C5.77093 0.719727 0.720703 5.76995 0.720703 11.9997C0.720703 18.2295 5.77093 23.2797 12.0007 23.2797Z" fill="#74A7B3"/>
<path d="M10.5111 16.2815C10.4638 16.2815 10.417 16.2722 10.3733 16.2542C10.3296 16.2361 10.2899 16.2096 10.2565 16.1762L6.00605 11.9258C5.97167 11.8926 5.94424 11.8528 5.92538 11.8089C5.90651 11.765 5.89658 11.7177 5.89616 11.6699C5.89575 11.6221 5.90486 11.5747 5.92296 11.5305C5.94106 11.4863 5.96779 11.4461 6.00159 11.4123C6.03539 11.3785 6.07559 11.3517 6.11983 11.3336C6.16407 11.3155 6.21148 11.3064 6.25928 11.3068C6.30708 11.3072 6.35432 11.3172 6.39824 11.336C6.44216 11.3549 6.48188 11.3823 6.51509 11.4167L10.5166 15.4182L17.7574 8.50216C17.8264 8.43618 17.9189 8.40033 18.0143 8.40249C18.1098 8.40465 18.2005 8.44465 18.2665 8.51368C18.3324 8.58271 18.3683 8.67512 18.3661 8.77058C18.364 8.86605 18.324 8.95674 18.2549 9.02272L10.7597 16.1819C10.6901 16.2484 10.6006 16.2818 10.5111 16.2818V16.2815ZM4.35965 8.01592C4.29618 8.01586 4.23386 7.99902 4.17899 7.9671C4.12413 7.93519 4.07868 7.88934 4.04725 7.8342C4.01581 7.77906 3.99952 7.71659 4.00001 7.65312C4.0005 7.58965 4.01777 7.52744 4.05005 7.4728C5.32205 5.32048 7.44653 3.7456 9.87845 3.15184C10.0721 3.10384 10.2665 3.22288 10.3136 3.41608C10.3248 3.462 10.3269 3.50969 10.3197 3.55642C10.3125 3.60315 10.2962 3.648 10.2716 3.68841C10.2471 3.72882 10.2148 3.764 10.1767 3.79193C10.1385 3.81986 10.0953 3.84 10.0493 3.8512C7.80461 4.39936 5.84381 5.8528 4.66997 7.83904C4.63811 7.89297 4.59272 7.93766 4.5383 7.96868C4.48387 7.9997 4.4223 8.01598 4.35965 8.01592ZM13.6436 3.73936C13.6234 3.73936 13.6028 3.73768 13.5821 3.73408C13.2902 3.68351 12.996 3.64723 12.7006 3.62536C12.6534 3.62198 12.6074 3.60934 12.5651 3.58817C12.5228 3.56699 12.4851 3.53769 12.4542 3.50194C12.4232 3.46619 12.3996 3.4247 12.3847 3.37982C12.3698 3.33494 12.3639 3.28757 12.3673 3.2404C12.3746 3.14535 12.4192 3.05704 12.4912 2.99463C12.5633 2.93223 12.6571 2.90075 12.7522 2.90704C13.0609 2.92912 13.3813 2.96848 13.7043 3.02416C13.7923 3.04039 13.8712 3.0888 13.9255 3.15996C13.9798 3.23113 14.0057 3.31997 13.9981 3.40917C13.9906 3.49838 13.9501 3.58158 13.8845 3.64257C13.819 3.70355 13.7331 3.73797 13.6436 3.73912V3.73936Z" fill="white"/>
</g>
<defs>
<clipPath id="clip0_1719_58694">
<rect width="24" height="24" fill="white"/>
</clipPath>
</defs>
</svg>
