<svg width="102" height="102" viewBox="0 0 102 102" fill="none" xmlns="http://www.w3.org/2000/svg">
<g id="fi_2663006" clip-path="url(#clip0_390_6658)">
<g id="Group">
<path id="Vector" d="M42.5635 40.8184C41.7464 40.8184 41.084 41.4808 41.084 42.2979V43.0477C41.084 43.8647 41.7464 44.5271 42.5635 44.5271C43.3806 44.5271 44.043 43.8647 44.043 43.0477V42.2979C44.043 41.4808 43.3806 40.8184 42.5635 40.8184Z" fill="#33495F"/>
<path id="Vector_2" d="M60.1846 40.8184C59.3675 40.8184 58.7051 41.4808 58.7051 42.2979V43.0477C58.7051 43.8647 59.3675 44.5271 60.1846 44.5271C61.0016 44.5271 61.6641 43.8647 61.6641 43.0477V42.2979C61.6641 41.4808 61.0016 40.8184 60.1846 40.8184Z" fill="#33495F"/>
<path id="Vector_3" d="M45.9947 47.415C45.0567 48.3236 44.9421 49.7995 45.728 50.8478L48.7448 54.8716C49.3715 55.7074 50.3302 56.1868 51.375 56.1868C52.4197 56.1868 53.3782 55.7072 54.0049 54.8714L57.0219 50.8478C57.8078 49.7995 57.693 48.3238 56.755 47.4152C53.2857 44.0544 49.4642 44.0544 45.9947 47.415ZM51.6375 53.0964C51.5561 53.2049 51.4497 53.2278 51.375 53.2278C51.3 53.2278 51.1937 53.2049 51.1122 53.0964L48.2836 49.3237C50.4372 47.3576 52.3128 47.3574 54.4661 49.3237L51.6375 53.0964Z" fill="#33495F"/>
<path id="Vector_4" d="M90.124 45.1205C90.0443 43.4986 89.1473 42.056 87.7247 41.2616C86.2907 40.4611 84.5769 40.4556 83.1402 41.2462L77.425 44.3924C76.6946 41.6471 75.7652 38.9643 74.6465 36.3805C74.8555 36.2446 75.0523 36.087 75.2307 35.9035L78.094 32.9611C78.8311 32.2034 79.1631 31.1251 78.9821 30.0769C77.5274 21.6518 73.9394 14.3254 68.6061 8.88994C63.6034 3.79141 57.6063 0.944082 51.7194 0.872277C51.6483 0.871488 51.5777 0.871094 51.5065 0.871094C46.7834 0.871094 41.7582 2.73151 37.3318 6.12329C36.6832 6.6204 36.5603 7.54893 37.0574 8.19754C37.5545 8.84615 38.483 8.96904 39.1316 8.47194C43.1012 5.4303 47.5608 3.78905 51.6836 3.83106C56.709 3.89222 62.1072 6.49139 66.494 10.9624C69.9179 14.452 74.3581 20.6886 76.0661 30.5805C76.0864 30.6984 76.0517 30.817 75.973 30.8979L73.1095 33.8405C73.0114 33.9413 72.898 33.9624 72.8201 33.9624C72.7421 33.9624 72.6287 33.9413 72.5305 33.8403L68.0843 29.2696C67.4466 28.6139 66.5918 28.2525 65.6773 28.2518H65.6745C64.76 28.2518 63.9041 28.6128 63.2631 29.2696L58.8168 33.8405C58.7187 33.9411 58.6059 33.9624 58.5284 33.9624C58.4503 33.9624 58.336 33.9409 58.2378 33.8403L53.7916 29.2695C53.1531 28.613 52.2969 28.2516 51.381 28.2516C50.4653 28.2516 49.6092 28.6131 48.9706 29.2696L44.5245 33.8405C44.4262 33.9413 44.3128 33.9626 44.2349 33.9626C44.157 33.9626 44.0435 33.9415 43.9451 33.8403L39.497 29.2698C38.8592 28.6141 38.0045 28.2527 37.0899 28.252H37.0872C36.1726 28.252 35.3167 28.613 34.6758 29.2698L30.2294 33.8407C30.1811 33.8902 30.1292 33.9202 30.0797 33.9381L30.0754 33.9399C30.0257 33.9573 29.9787 33.9626 29.9402 33.9626C29.8623 33.9626 29.7489 33.9415 29.6503 33.8401L26.5745 30.6807C26.4942 30.5982 26.4597 30.4773 26.4826 30.3576C27.7455 23.7125 30.4871 17.7188 34.4113 13.024C34.9354 12.3971 34.852 11.4641 34.225 10.9401C33.5979 10.416 32.6649 10.4994 32.1411 11.1263C27.8944 16.2071 24.9327 22.6662 23.5759 29.805C23.3731 30.8722 23.7015 31.971 24.4547 32.7447L27.5299 35.9037C27.7737 36.1544 28.0498 36.3614 28.3483 36.5223C27.1781 39.0787 26.1855 41.7647 25.4197 44.4463L19.6073 41.2464C18.1706 40.4556 16.4569 40.4613 15.0228 41.2618C13.6001 42.0562 12.7032 43.4986 12.6235 45.1205C12.499 47.6473 13.0218 50.1421 14.1349 52.3353C16.0411 56.0907 19.5992 58.8644 23.6968 59.8093C23.7934 60.7834 23.94 61.7368 24.1357 62.6671C23.3707 62.0325 22.3451 61.8382 21.3878 62.1655C20.3261 62.5288 19.5879 63.4483 19.4615 64.5654C19.2467 66.4643 19.1253 68.4249 19.1013 70.3932C18.9973 79.0017 22.2496 86.9623 28.2593 92.8085C34.1576 98.5466 42.1693 101.764 50.8184 101.869C50.9644 101.871 51.1094 101.871 51.255 101.871C61.4795 101.871 70.762 97.5259 76.7762 89.9073C77.2824 89.266 77.1731 88.3357 76.5316 87.8293C75.8901 87.3232 74.9598 87.4324 74.4536 88.0739C68.9272 95.0747 60.3251 99.0267 50.8541 98.9099C42.9667 98.8147 35.6751 95.8945 30.3225 90.6877C24.9005 85.4128 21.9662 78.2184 22.0601 70.4293C22.0822 68.6236 22.1903 66.8255 22.3814 65.0809L24.502 67.2591C25.8835 68.6794 28.2296 68.7539 29.6836 67.2591L34.7216 62.0799C34.891 61.9063 35.0903 61.88 35.1942 61.88C35.2972 61.88 35.495 61.9061 35.6627 62.0785L40.7046 67.2591C41.3909 67.9645 42.311 68.3529 43.2955 68.3529C44.2801 68.3529 45.2001 67.9643 45.886 67.2591L50.9258 62.0781C51.0936 61.9055 51.2919 61.8798 51.3952 61.8798C51.4986 61.8798 51.6971 61.9055 51.8649 62.0781L56.9061 67.2604C57.5933 67.9649 58.513 68.3529 59.496 68.3529H59.4989C60.4817 68.3521 61.4006 67.9635 62.0859 67.2591L67.124 62.0799C67.2935 61.9061 67.4927 61.88 67.5967 61.88C67.6996 61.88 67.8975 61.9061 68.0652 62.0781L73.1045 67.2589C74.5686 68.7642 76.9147 68.6687 78.2859 67.2591L80.1023 65.3923C80.2743 67.2695 80.3501 69.1992 80.3276 71.1312C80.2797 75.1055 79.4654 78.8867 77.9075 82.37C77.574 83.1159 77.9081 83.9909 78.6542 84.3247C79.4001 84.6579 80.2751 84.3239 80.6089 83.5781C82.3328 79.7235 83.2337 75.5478 83.2866 71.1663C83.311 69.0625 83.2248 66.9604 83.0301 64.9181C82.9226 63.7915 82.1929 62.8583 81.1257 62.4827C80.3207 62.1992 79.4673 62.2844 78.758 62.6914C78.943 61.7455 79.0758 60.7759 79.1551 59.7851C83.2085 58.8173 86.7222 56.0585 88.6122 52.3351C89.7257 50.1421 90.2485 47.6473 90.124 45.1205ZM85.9739 50.9961C84.4459 54.0066 81.4425 56.3002 78.136 56.9815C76.9252 57.2309 75.9442 57.0336 75.1364 56.3787C74.5016 55.8644 73.5701 55.9615 73.0554 56.5963C72.5409 57.2311 72.6382 58.1626 73.273 58.6772C74.123 59.3663 75.0995 59.7963 76.1639 59.9628C75.9901 61.7437 75.6216 63.4382 75.0624 65.0272L70.1868 60.0149C69.5013 59.3102 68.5826 58.9216 67.5998 58.921H67.5969C66.6139 58.921 65.694 59.3089 65.0052 60.0149L59.9655 65.1959C59.798 65.3679 59.6001 65.3937 59.4971 65.3939C59.3934 65.3939 59.1941 65.3679 59.0263 65.1959L53.9867 60.0151C53.3004 59.3095 52.3804 58.9208 51.396 58.9208C50.4117 58.9208 49.4916 59.3095 48.8053 60.0149L43.7656 65.1959C43.5979 65.3681 43.3995 65.3939 43.2961 65.3939C43.1927 65.3939 42.9941 65.3681 42.8262 65.1955L37.7843 60.0151C37.099 59.3104 36.1803 58.9218 35.1974 58.9212H35.1944C34.2114 58.9212 33.2916 59.3091 32.6027 60.0151L27.8429 64.9082C27.2819 63.3485 26.8972 61.6881 26.6934 59.9445C27.7155 59.7661 28.6545 59.3426 29.4753 58.6772C30.1101 58.1626 30.2073 57.2309 29.6929 56.5963C29.1782 55.9615 28.2465 55.8642 27.6119 56.3787C26.8039 57.0338 25.8229 57.2311 24.6123 56.9815C21.3057 56.3002 18.3024 54.0066 16.7743 50.9961C15.8935 49.2609 15.4805 47.2796 15.5795 45.2659C15.6093 44.6611 15.9324 44.1435 16.466 43.8454C17.0109 43.541 17.636 43.5385 18.1808 43.8385L28.8162 49.6933C29.5321 50.0873 30.4316 49.8265 30.826 49.1108C31.2201 48.3949 30.9591 47.4952 30.2434 47.1011L28.0838 45.9122C28.9551 42.6959 30.1793 39.4539 31.6604 36.4464C31.9097 36.2972 32.1433 36.1179 32.3518 35.9035L36.7964 31.3342C36.896 31.232 37.0102 31.2105 37.0884 31.2105C37.1659 31.2105 37.2787 31.2319 37.377 31.3329L41.8251 35.9033C42.4635 36.5596 43.3196 36.9212 44.2357 36.9212C45.1518 36.9212 46.0077 36.5596 46.6463 35.9033L51.0924 31.3325C51.1907 31.2315 51.3041 31.2102 51.3818 31.2102C51.4598 31.2102 51.5732 31.2313 51.6714 31.3325L56.119 35.9049C56.7583 36.5602 57.614 36.921 58.5288 36.921H58.5315C59.446 36.9202 60.3008 36.5588 60.9386 35.9031L65.3831 31.3338C65.4828 31.2317 65.597 31.2102 65.6751 31.2102C65.7526 31.2102 65.8655 31.2315 65.9635 31.3323L70.4097 35.9029C70.7348 36.2371 71.1165 36.4937 71.5337 36.6663C72.8721 39.6081 73.9522 42.6938 74.7505 45.8644L72.505 47.1007C71.7893 47.4948 71.5284 48.3946 71.9225 49.1104C72.3166 49.8259 73.216 50.0871 73.9323 49.693L84.5676 43.8381C85.1123 43.5381 85.7374 43.5404 86.2825 43.845C86.8161 44.1429 87.1392 44.6607 87.169 45.2655C87.2678 47.2794 86.8547 49.2609 85.9739 50.9961Z" fill="#33495F"/>
</g>
</g>
<defs>
<clipPath id="clip0_390_6658">
<rect width="101" height="101" fill="white" transform="translate(0.875 0.871094)"/>
</clipPath>
</defs>
</svg>
