<svg width="109" height="109" viewBox="0 0 109 109" fill="none" xmlns="http://www.w3.org/2000/svg">
<g id="fi_8334338" clip-path="url(#clip0_390_7156)">
<g id="Group">
<g id="Group_2">
<path id="Vector" d="M96.3815 59.9538H88.9885C89.1512 58.827 89.2334 57.6817 89.2334 56.5212V43.3763C89.3017 43.2023 89.3667 43.0262 89.4251 42.8466L92.2912 34.0263C92.364 33.8021 92.4297 33.5769 92.4916 33.3512C92.8568 33.4061 93.2223 33.4367 93.5863 33.4367C95.1991 33.4367 96.7743 32.9029 98.0845 31.8833C99.8864 30.4807 100.92 28.3667 100.92 26.083V23.8253C100.92 19.5136 98.4113 15.5162 94.5288 13.641L88.2359 10.6014C85.4229 9.24351 82.0497 9.81448 79.8416 12.0226C79.354 12.5102 78.9399 13.0686 78.6069 13.6728C75.5227 13.0003 72.3297 13.0003 69.2455 13.6728C68.9127 13.0688 68.4984 12.5104 68.0106 12.0226C65.8023 9.81448 62.4291 9.2433 59.6165 10.6014L53.3234 13.641C49.4409 15.5162 46.9324 19.5136 46.9324 23.8253V26.083C46.9324 28.3664 47.9658 30.4807 49.7679 31.8833C51.0781 32.9031 52.6531 33.4367 54.2661 33.4367C54.6301 33.4367 54.9957 33.4061 55.3608 33.3512C55.4227 33.5769 55.4884 33.8019 55.5613 34.0263L56.3141 36.3432H51.3188C50.4638 36.3432 49.7706 37.0362 49.7706 37.8914C49.7706 38.7466 50.4638 39.4396 51.3188 39.4396H57.3194L58.4265 42.8469C59.6729 46.6833 63.2207 49.2609 67.2545 49.2609H80.5971C82.6496 49.2609 84.5753 48.5925 86.137 47.4316V56.5214C86.137 59.2943 85.5988 61.9651 84.5394 64.4818C83.6122 64.1763 82.6227 64.0087 81.5945 64.0087H72.5588C69.6515 62.0937 66.1734 60.9771 62.4394 60.9771H38.6667L38.6425 60.9269C39.7228 58.4703 40.4843 55.8561 40.8484 53.309C41.4677 48.7521 40.6401 45.7094 38.4547 44.5045C36.3176 43.2143 33.2691 44.0192 29.6246 46.8404C28.4725 47.7445 27.3648 48.7713 26.323 49.898C26.3055 49.898 26.2881 49.8969 26.2706 49.8969H20.5934C24.2208 43.4763 31.0242 39.4394 38.5276 39.4394H44.0939C44.9489 39.4394 45.6421 38.7464 45.6421 37.8912C45.6421 37.036 44.9489 36.343 44.0939 36.343H38.5276C29.5288 36.343 21.4045 41.3899 17.3847 49.3309C16.5019 48.4251 15.5756 47.5885 14.6143 46.834C10.9777 44.0194 7.92896 43.2141 5.79265 44.5045C3.60721 45.7094 2.77965 48.7521 3.40037 53.3197C3.76306 55.8569 4.52457 58.4703 5.6048 60.9269L4.51755 63.183C4.04463 64.1641 3.72529 65.1927 3.55354 66.2368H1.6732C0.81818 66.2368 0.125 66.9298 0.125 67.785C0.125 68.6403 0.81818 69.3332 1.6732 69.3332H3.47613C3.56819 70.1397 3.7482 70.9366 4.01387 71.7096H1.6732C0.81818 71.7096 0.125 72.4026 0.125 73.2578C0.125 74.113 0.81818 74.806 1.6732 74.806H5.65125L8.61512 78.9473C10.2766 81.2688 12.7564 82.8474 15.5058 83.4107V87.2909H10.7582C6.32089 87.2909 2.71111 90.9009 2.71111 95.338C2.71111 96.7347 3.84728 97.8711 5.24397 97.8711H11.4785C12.3335 97.8711 13.0267 97.1781 13.0267 96.3229C13.0267 95.4677 12.3335 94.7747 11.4785 94.7747H5.8393C6.11983 92.3091 8.21878 90.3873 10.7582 90.3873H34.4356C35.2906 90.3873 35.9838 89.6943 35.9838 88.8391C35.9838 87.9839 35.2906 87.2909 34.4356 87.2909H18.6022V83.6429H26.4976C30.1132 83.6429 33.5281 81.8875 35.6322 78.9473L38.5961 74.806H42.4841C43.3392 74.806 44.0323 74.113 44.0323 73.2578C44.0323 72.4026 43.3392 71.7096 42.4841 71.7096H40.2335C40.4991 70.9366 40.6791 70.14 40.7712 69.3332H42.4841C43.3392 69.3332 44.0323 68.6403 44.0323 67.785C44.0323 66.9298 43.3392 66.2368 42.4841 66.2368H40.694C40.5735 65.5044 40.3794 64.7797 40.1113 64.0737H46.0859C46.0776 64.3321 46.077 64.5914 46.0931 64.8515C46.3493 68.9604 49.6403 72.2637 53.748 72.5347C55.6649 72.6623 57.5739 72.114 59.1209 70.9935C59.1335 70.9844 59.1717 70.9572 59.2388 70.9727C59.2734 70.9807 59.3205 71.0016 59.3488 71.0548C61.0078 74.1853 64.2751 76.1298 67.7918 76.1298C67.9943 76.1298 68.1979 76.1234 68.4016 76.1102C71.4402 75.916 74.1413 74.2757 75.7564 71.8044C77.0472 74.0515 77.7895 76.6519 77.7895 79.424C77.7895 87.8883 70.9035 94.7745 62.4392 94.7745H53.6068V94.4395C53.6068 93.0038 54.7748 91.8356 56.2105 91.8356H62.4392C69.2828 91.8356 74.8508 86.2676 74.8508 79.424C74.8508 78.5688 74.1578 77.8758 73.3026 77.8758C72.4474 77.8758 71.7544 78.5688 71.7544 79.424C71.7544 84.5605 67.5757 88.7392 62.4392 88.7392H56.2105C53.0674 88.7392 50.5102 91.2964 50.5102 94.4395V94.7745H34.4354H27.5797H18.7034C17.8484 94.7745 17.1552 95.4675 17.1552 96.3227C17.1552 97.1779 17.8484 97.8709 18.7034 97.8709H27.5797H34.4356H62.4392C72.6106 97.8709 80.8859 89.5957 80.8859 79.424C80.8859 78.3194 80.788 77.2373 80.601 76.1856H88.2856C89.7981 76.1856 91.0286 74.9551 91.0286 73.4426C91.0286 72.9973 90.9954 72.5599 90.9355 72.1309H90.9527C91.8079 72.1309 92.5009 71.438 92.5009 70.5827C92.5009 69.7275 91.8079 69.0345 90.9527 69.0345H89.9321C89.2858 67.8168 88.381 66.7568 87.2907 65.9282C87.6994 64.9873 88.0419 64.0268 88.3222 63.05H96.3815C99.7574 63.05 102.525 65.7034 102.709 69.0343H98.1776C97.3224 69.0343 96.6294 69.7273 96.6294 70.5825C96.6294 71.4378 97.3224 72.1307 98.1776 72.1307H103.072C104.585 72.1307 105.815 70.9002 105.815 69.3877C105.815 64.186 101.583 59.9538 96.3815 59.9538ZM7.29832 47.2099C7.32681 47.1946 7.35488 47.1785 7.38254 47.1614C8.04724 46.7498 9.84418 47.0571 12.7106 49.276C13.2197 49.6757 13.7186 50.1052 14.207 50.5577C11.4714 51.5403 9.15265 53.5651 7.85712 56.253L7.45438 57.0886C7.00169 55.692 6.6648 54.2765 6.46684 52.892C5.97761 49.2896 6.60886 47.5796 7.29832 47.2099ZM36.8788 71.7092H36.1768C35.3218 71.7092 34.6286 72.4022 34.6286 73.2574C34.6286 73.694 34.81 74.0877 35.1007 74.369L33.114 77.1448C31.5898 79.2745 29.1164 80.5463 26.4974 80.5463H17.7497C15.1308 80.5463 12.6574 79.2747 11.1331 77.1448L9.13201 74.349C9.41027 74.0691 9.58243 73.6835 9.58243 73.2574C9.58243 72.4022 8.88925 71.7092 8.03423 71.7092H7.36809C6.98889 70.9545 6.73065 70.1532 6.60081 69.3328H8.03423C8.88925 69.3328 9.58243 68.6399 9.58243 67.7846C9.58243 66.9294 8.88925 66.2364 8.03423 66.2364H6.71001C6.84418 65.6533 7.04029 65.0794 7.30658 64.5268L10.6464 57.5973C11.9943 54.8006 14.8713 52.9933 17.9761 52.9933H26.2706C29.3754 52.9933 32.2526 54.8006 33.6004 57.5973L36.9401 64.5268C37.2064 65.0794 37.4025 65.6533 37.5367 66.2364H36.1766C35.3216 66.2364 34.6284 66.9294 34.6284 67.7846C34.6284 68.6399 35.3216 69.3328 36.1766 69.3328H37.6459C37.5163 70.1534 37.258 70.9545 36.8788 71.7092ZM37.7817 52.8813C37.583 54.2722 37.2454 55.6903 36.7925 57.0884L36.39 56.253C35.0945 53.5651 32.7755 51.5405 30.0399 50.5575C30.5267 50.1063 31.0231 49.6788 31.5283 49.2822C34.4032 47.0571 36.2001 46.7494 36.8646 47.1612C36.8923 47.1783 36.9203 47.1944 36.9488 47.2097C37.6385 47.5796 38.2697 49.2896 37.7817 52.8813ZM68.2041 73.02C65.6704 73.1779 63.2701 71.8413 62.0843 69.6043C61.6424 68.7709 60.8604 68.1702 59.9392 67.9562C59.0224 67.7438 58.0623 67.9364 57.3041 68.4852C56.3267 69.1931 55.167 69.5248 53.9515 69.4445C51.4346 69.2783 49.3402 67.1761 49.1831 64.6583C49.1709 64.4624 49.1738 64.2673 49.1835 64.0731H62.439C66.8994 64.0731 70.9202 65.9869 73.7274 69.0348C72.7956 71.2937 70.6647 72.8627 68.2041 73.02ZM82.0309 14.2124C83.3087 12.9342 85.2611 12.6031 86.889 13.39L93.1821 16.4296C96.0015 17.7914 97.8232 20.6944 97.8232 23.8255V26.0832C97.8232 27.4047 97.2252 28.6282 96.1823 29.4401C95.2666 30.1531 94.1269 30.4549 92.9957 30.2986C93.295 25.3165 91.0703 20.4291 86.8848 17.3883C85.2572 16.2057 83.511 15.2747 81.6975 14.5887C81.8014 14.4568 81.9124 14.3309 82.0309 14.2124ZM54.8559 30.2984C53.7245 30.4547 52.585 30.1527 51.6693 29.4399C50.6264 28.628 50.0284 27.4047 50.0284 26.083V23.8253C50.0284 20.6942 51.8501 17.7912 54.6695 16.4294L60.9626 13.3898C62.5899 12.6035 64.5423 12.934 65.8207 14.212C65.9392 14.3305 66.0502 14.4564 66.1538 14.5883C64.3404 15.2743 62.5942 16.2052 60.9663 17.3879C56.7812 20.4291 54.5564 25.3163 54.8559 30.2984ZM87.9225 73.0892H79.7652C78.9486 70.8627 77.7135 68.8364 76.1571 67.1049H81.5943C84.9706 67.1049 87.7386 69.7583 87.9225 73.0892ZM86.4802 41.8899C85.6496 44.4467 83.2852 46.1643 80.5971 46.1643H75.4742V41.6682L79.0516 37.2669C79.7573 36.3985 79.8973 35.2314 79.4163 34.2207C78.9356 33.21 77.9414 32.5823 76.8224 32.5823H71.0296C69.9106 32.5823 68.9166 33.21 68.4359 34.2205C67.9549 35.231 68.0947 36.3983 68.8004 37.2669L72.378 41.6682V46.1643H67.2549C64.5668 46.1643 62.2024 44.4467 61.3718 41.8899L58.5057 33.0695C56.9231 28.1986 58.6436 22.9034 62.7868 19.8931C69.4496 15.0534 78.4028 15.053 85.0654 19.8931C89.2086 22.9034 90.9291 28.1986 89.3465 33.0695L86.4802 41.8899ZM73.926 38.6636L71.4997 35.6787H76.3521L73.926 38.6636Z" fill="#33495F"/>
<path id="Vector_2" d="M26.0678 71.6754L23.7083 69.7876L25.3007 68.0956C25.8488 67.5134 25.998 66.6632 25.681 65.9291C25.3639 65.1951 24.6424 64.7207 23.8429 64.7207H20.4047C19.6052 64.7207 18.8837 65.1951 18.5667 65.9291C18.2496 66.6632 18.3988 67.5134 18.9467 68.0952L20.5453 69.7938L18.2335 71.6864C17.5719 72.228 17.4747 73.2036 18.0163 73.8652C18.558 74.527 19.5334 74.624 20.195 74.0826L22.1348 72.4945L24.1332 74.0935C24.4187 74.3218 24.7603 74.4329 25.0995 74.4329C25.5536 74.4329 26.0036 74.2341 26.3093 73.852C26.8436 73.184 26.7354 72.2096 26.0678 71.6754Z" fill="#33495F"/>
<path id="Vector_3" d="M14.6068 60.7676C13.7518 60.7676 13.0586 61.4606 13.0586 62.3158V64.4661C13.0586 65.3213 13.7518 66.0143 14.6068 66.0143C15.4618 66.0143 16.155 65.3213 16.155 64.4661V62.3158C16.155 61.4606 15.4618 60.7676 14.6068 60.7676Z" fill="#33495F"/>
<path id="Vector_4" d="M29.6419 60.7676C28.7869 60.7676 28.0938 61.4606 28.0938 62.3158V64.4661C28.0938 65.3213 28.7869 66.0143 29.6419 66.0143C30.497 66.0143 31.1901 65.3213 31.1901 64.4661V62.3158C31.1901 61.4606 30.497 60.7676 29.6419 60.7676Z" fill="#33495F"/>
<path id="Vector_5" d="M66.5345 26.0547C65.6793 26.0547 64.9863 26.7477 64.9863 27.6029V29.7169C64.9863 30.5721 65.6793 31.2651 66.5345 31.2651C67.3898 31.2651 68.0827 30.5721 68.0827 29.7169V27.6029C68.0827 26.7479 67.3895 26.0547 66.5345 26.0547Z" fill="#33495F"/>
<path id="Vector_6" d="M81.3158 26.0547C80.4606 26.0547 79.7676 26.7477 79.7676 27.6029V29.7169C79.7676 30.5721 80.4606 31.2651 81.3158 31.2651C82.171 31.2651 82.864 30.5721 82.864 29.7169V27.6029C82.864 26.7479 82.171 26.0547 81.3158 26.0547Z" fill="#33495F"/>
</g>
</g>
</g>
<defs>
<clipPath id="clip0_390_7156">
<rect width="108" height="108" fill="white" transform="translate(0.125 0.871094)"/>
</clipPath>
</defs>
</svg>
