<svg width="89" height="92" viewBox="0 0 89 92" fill="none" xmlns="http://www.w3.org/2000/svg">
<g id="fi_1650500">
<path id="Vector" d="M87.9833 59.8443L87.5842 54.0781C87.3749 51.0471 86.1094 48.1651 84.0211 45.9629C83.5058 45.4205 82.6499 45.3987 82.107 45.9136C81.5649 46.4285 81.5423 47.2855 82.057 47.8279C83.7137 49.5744 84.7177 51.8604 84.8834 54.265L85.2824 60.0306C85.4368 62.2757 83.8054 64.2161 81.567 64.4489C81.4316 64.463 81.2885 64.4701 81.1419 64.4701C80.5222 64.4701 79.899 64.3283 79.3399 64.0588L76.6834 62.78C76.4247 62.0098 76.1025 61.2607 75.719 60.5426L69.3873 48.7054C68.9079 47.8096 68.3291 46.9794 67.6628 46.2282L69.5932 45.1137C70.1917 44.7674 70.8742 44.5847 71.5672 44.5847H74.5162C75.6816 44.5847 76.8265 44.7765 77.92 45.1546C78.6278 45.4001 79.3977 45.0241 79.6416 44.3173C79.8863 43.6106 79.5112 42.8389 78.8048 42.5949C77.4258 42.1173 75.9826 41.8754 74.5162 41.8754H71.5665C70.3983 41.8754 69.2477 42.1851 68.2388 42.7684L66.1915 43.9499C66.826 42.7395 66.948 41.3259 66.4502 40.1409C66.1605 39.4511 65.3673 39.1273 64.6778 39.4172C63.9883 39.7071 63.6647 40.5007 63.9545 41.1905C64.2175 41.8162 63.9418 42.7338 63.3144 43.3242C63.2093 43.423 63.0958 43.5154 62.9738 43.6021C62.9492 43.6176 62.9245 43.6346 62.9012 43.6522C62.2836 44.0662 61.4581 44.3329 60.4386 44.4478C59.6956 44.5318 59.1612 45.2026 59.2451 45.946C59.3226 46.6373 59.9085 47.1486 60.5881 47.1486C60.6389 47.1486 60.6896 47.1458 60.7418 47.1402C61.8613 47.0139 62.8455 46.7395 63.6873 46.3206C63.9771 46.5145 64.2555 46.7233 64.5227 46.9448C64.5509 46.9716 64.5806 46.9956 64.6109 47.0196C65.5817 47.8441 66.3924 48.8471 67.0001 49.9835L73.3318 61.8208C74.2518 63.5404 74.7383 65.4815 74.7383 67.434V69.4725C74.7383 72.6755 73.4016 75.7212 71.1357 77.8944C70.5308 73.3914 66.6646 69.9077 62.0002 69.9077H61.5645C61.5666 69.8287 61.5681 69.7489 61.5681 69.6692C61.5681 67.2809 58.7931 65.7383 54.4996 65.7383C50.2054 65.7383 47.4312 67.2809 47.4312 69.6692C47.4312 69.7489 47.4319 69.8287 47.4348 69.9077H46.9977C42.3347 69.9077 38.4692 73.3914 37.8643 77.8944C35.5984 75.7212 34.2617 72.6755 34.2617 69.4725V67.434C34.2617 65.4815 34.7482 63.5411 35.6682 61.8208L41.9985 49.9835C42.609 48.8422 43.4155 47.8491 44.3645 47.0365C44.4096 47.0033 44.4533 46.9667 44.4949 46.9272C46.2919 45.4396 48.5762 44.5875 50.9936 44.584C51.2735 44.5903 54.4256 44.6566 55.5565 44.5812C56.8565 44.4951 57.8174 44.0867 58.834 43.6543L58.9511 43.6049C60.9526 42.7557 62.462 41.3069 63.0909 39.6303C63.4561 38.6555 63.5012 37.6821 63.2227 36.8187C62.873 35.7304 61.9904 34.8628 60.918 34.5531C60.1989 34.3464 59.4495 34.7612 59.2429 35.4799C59.0357 36.1987 59.4502 36.9492 60.1686 37.1566C60.3752 37.2158 60.5712 37.4176 60.6452 37.6496C60.734 37.9233 60.7023 38.2887 60.5564 38.678C60.1862 39.6634 59.2161 40.55 57.8943 41.1108L57.7758 41.1609C56.8727 41.5446 56.2199 41.8225 55.3767 41.8782C54.5137 41.9354 51.9525 41.8959 51.0381 41.8754C51.0282 41.8754 51.0183 41.8754 51.0084 41.8754C48.2385 41.8754 45.606 42.7557 43.4437 44.3173L40.7612 42.7684C39.7502 42.1844 38.5982 41.8754 37.4314 41.8754H34.4838C27.6283 41.8754 21.8867 47.2354 21.4136 54.0781L21.0167 59.8443C20.7615 63.5524 23.456 66.7582 27.1496 67.1427C27.3787 67.1666 27.617 67.1786 27.856 67.1786C28.8797 67.1786 29.909 66.9437 30.8332 66.4994L31.6144 66.1234C31.5742 66.5586 31.5545 66.9959 31.5545 67.4333V69.4725C31.5545 74.3267 34.046 78.8889 38.0948 81.5185C39.1495 85.4495 42.7408 88.3527 46.9977 88.3527C47.3988 88.3527 47.795 88.3266 48.1842 88.2772C49.64 90.2868 51.9792 91.5 54.4989 91.5C57.0186 91.5 59.3579 90.2861 60.8137 88.2772C61.2029 88.3266 61.5991 88.3527 62.0002 88.3527C66.2578 88.3527 69.8498 85.4495 70.9045 81.5185C74.9533 78.8889 77.4448 74.3267 77.4448 69.4725V67.4333C77.4448 66.9959 77.4251 66.5593 77.3856 66.1241L78.1653 66.5001C79.0889 66.9437 80.1182 67.1786 81.1412 67.1786C81.3823 67.1786 81.6206 67.1666 81.8483 67.1427C85.544 66.7582 88.2385 63.5524 87.9833 59.8443ZM29.6594 64.0581C29.0996 64.3276 28.4764 64.4701 27.8567 64.4701C27.7108 64.4701 27.5684 64.463 27.4316 64.4482C25.1946 64.2161 23.5639 62.275 23.7183 60.0306L24.1152 54.265C24.491 48.8366 29.0453 44.584 34.4845 44.584H37.4321C38.1244 44.584 38.8083 44.7674 39.4083 45.1144L41.335 46.2267C40.6752 46.973 40.0949 47.8025 39.612 48.7054L33.2817 60.5426C32.8982 61.26 32.576 62.0084 32.318 62.7779L29.6594 64.0581ZM54.4996 68.4469C55.8088 68.4469 57.0581 68.6465 57.9253 68.9935C58.607 69.2672 58.8608 69.5529 58.8608 69.6685C58.8608 72.3517 56.9044 74.5341 54.4996 74.5341C52.0949 74.5341 50.1385 72.3517 50.1385 69.6685C50.1385 69.3144 51.6669 68.4469 54.4996 68.4469ZM54.4989 88.7914C53.194 88.7914 51.963 88.292 51.0352 87.4308C52.4114 86.7635 53.6043 85.7598 54.4996 84.5029C55.395 85.7598 56.5879 86.7628 57.9641 87.4301C57.0363 88.292 55.8046 88.7914 54.4989 88.7914ZM62.0002 85.6441C61.5067 85.6441 61.0238 85.5891 60.5585 85.4847C60.5028 85.4671 60.4464 85.4537 60.3893 85.4445C58.2383 84.9007 56.4828 83.2868 55.7905 81.0918C55.6121 80.5282 55.0897 80.1452 54.4996 80.1452C54.4989 80.1452 54.4989 80.1452 54.4989 80.1452C53.9081 80.1452 53.3857 80.5289 53.2081 81.0925C52.5172 83.2875 50.761 84.9014 48.6086 85.4445C48.5522 85.4544 48.4958 85.4678 48.4408 85.4847C47.9748 85.5891 47.4919 85.6441 46.9977 85.6441C43.4092 85.6441 40.489 82.7218 40.489 79.1302C40.489 75.5385 43.4092 72.6162 46.9977 72.6162H47.9882C49.0633 75.3332 51.5774 77.2434 54.4996 77.2434C57.4219 77.2434 59.936 75.3332 61.0111 72.6162H62.0002C65.5901 72.6162 68.511 75.5385 68.511 79.1302C68.511 82.7218 65.5908 85.6441 62.0002 85.6441Z" fill="#33495F"/>
<path id="Vector_2" d="M43.9999 59.5C42.6647 59.5 41.414 60.3404 40.2823 61.9992C39.8029 62.7019 39.9489 63.6866 40.6073 64.1983C40.8693 64.4016 41.1727 64.5 41.4739 64.5C41.9294 64.5 42.3796 64.2753 42.6677 63.8522C43.2731 62.9643 43.7525 62.6486 43.9999 62.6486C44.2472 62.6486 44.7274 62.9651 45.332 63.8522C45.8122 64.5549 46.734 64.7099 47.3932 64.1983C48.0516 63.6866 48.1968 62.7019 47.7174 61.9992C46.5865 60.3404 45.3358 59.5 43.9999 59.5Z" fill="#33495F"/>
<path id="Vector_3" d="M62.5316 64.1983C63.1076 64.7099 63.915 64.5549 64.3344 63.8522C64.8634 62.9643 65.2836 62.6486 65.5 62.6486C65.7164 62.6486 66.1359 62.9651 66.6656 63.8522C66.9183 64.2753 67.3116 64.5 67.7102 64.5C67.973 64.5 68.2392 64.4016 68.4684 64.1983C69.0452 63.6866 69.1722 62.7019 68.7528 61.9992C67.7633 60.3404 66.669 59.5 65.5 59.5C64.331 59.5 63.2367 60.3404 62.2472 61.9992C61.8278 62.7019 61.9548 63.6866 62.5316 64.1983Z" fill="#33495F"/>
<path id="Vector_4" d="M26.5255 8.95961C25.2284 8.01722 23.6427 7.63733 22.0597 7.88757C20.4761 8.13781 19.0855 8.99028 18.1439 10.2868C16.1992 12.9641 16.7944 16.7239 19.471 18.6687C20.5339 19.441 21.7677 19.8125 22.9902 19.8125C24.8471 19.8125 26.6803 18.9551 27.8526 17.3415C28.795 16.0443 29.1756 14.4585 28.9247 12.8756C28.6737 11.2926 27.822 9.90131 26.5255 8.95961ZM25.6877 15.7683C25.1656 16.4862 24.3947 16.9581 23.5179 17.0975C22.641 17.2362 21.7628 17.025 21.0442 16.5037C19.5616 15.426 19.2319 13.3433 20.3088 11.8607C20.8309 11.142 21.6011 10.6701 22.4779 10.5307C22.6543 10.5036 22.8299 10.4896 23.0049 10.4896C23.7012 10.4896 24.378 10.7078 24.9517 11.1253C25.6703 11.6474 26.1422 12.4176 26.2809 13.2945C26.4203 14.1714 26.2091 15.0496 25.6877 15.7683Z" fill="#33495F"/>
<path id="Vector_5" d="M35.8663 32.1431L38.2783 35.5961C38.7439 36.2619 39.4768 36.6894 40.2753 36.771C40.2803 36.7717 40.2853 36.7724 40.291 36.7724C40.3145 36.7753 40.3373 36.7767 40.3609 36.7789C40.3908 36.781 40.4208 36.7824 40.4507 36.7839C40.4785 36.7846 40.5063 36.7853 40.5348 36.786H40.5577C41.446 36.786 42.2866 36.3564 42.8099 35.6333L49.469 26.4292C49.9966 25.7004 50.1413 24.7553 49.8569 23.9005C49.844 23.8604 49.8298 23.821 49.8148 23.7816C49.8048 23.7551 49.7941 23.7294 49.7834 23.7043C49.7727 23.6778 49.7613 23.6528 49.7499 23.6277C49.7271 23.5776 49.7036 23.5289 49.6779 23.4809C49.6765 23.4781 49.675 23.4752 49.6736 23.4723C49.33 22.8258 48.7418 22.3318 48.0338 22.1135L44.8369 21.1291L44.0177 20.8763L33.3916 6.37777C32.986 5.79929 32.5311 5.25088 32.0384 4.74614C31.5087 4.20489 30.6417 4.1963 30.102 4.72824C29.5623 5.25947 29.5545 6.13006 30.0842 6.67203C30.4756 7.07295 30.8378 7.5104 31.1594 7.97003C31.1658 7.97862 31.1715 7.98721 31.1779 7.99509L41.4874 22.0626L36.2079 29.3603C18.9413 23.4738 18.7523 23.874 16.6277 22.3232C12.0191 18.9612 10.9939 12.4604 14.3426 7.83257C17.0248 4.1247 21.8951 2.61549 26.1857 4.16122C26.8972 4.41752 27.6808 4.04595 27.936 3.33144C28.192 2.61693 27.822 1.83011 27.1104 1.57308C21.6819 -0.382157 15.5205 1.52655 12.1268 6.21669C9.48522 9.86871 8.99541 14.4422 10.4164 18.3985L0.625203 30.2287C0.147517 30.8072 -0.0727893 31.5668 0.0213223 32.3114C0.114721 33.0559 0.515407 33.7354 1.11858 34.1743L4.01678 36.2899C4.49518 36.6385 5.05343 36.8125 5.61097 36.8125C6.1849 36.8125 6.75813 36.6285 7.2458 36.2605L19.7626 26.7793L35.8663 32.1431ZM43.7168 23.6599L47.2303 24.7417C47.2396 24.7446 47.2488 24.7474 47.256 24.7603C47.2574 24.7639 47.2595 24.7675 47.2602 24.7718C47.2681 24.794 47.261 24.8033 47.2538 24.8133L40.5947 34.0175C40.5876 34.0268 40.5812 34.0361 40.5577 34.0361H40.5569C40.537 34.0361 40.5291 34.0289 40.5227 34.021C40.522 34.0196 40.5213 34.0182 40.5199 34.0167L38.4088 30.9955L43.7168 23.6599ZM5.61097 34.0547L2.74913 31.9649L11.7475 21.0918C12.5937 22.3999 13.6881 23.5776 15.0185 24.5484C15.5704 24.9508 16.1493 25.308 16.7503 25.6173L5.61097 34.0547Z" fill="#33495F"/>
<path id="Vector_6" d="M52.7847 36.8125C53.1604 36.8125 53.5303 36.6102 53.7681 36.2298C54.1621 35.5985 54.042 34.7148 53.4994 34.2564L50.928 32.0829C50.386 31.6237 49.6265 31.7635 49.2319 32.3948C48.8379 33.0261 48.958 33.9098 49.5006 34.3682L52.072 36.5417C52.2877 36.7242 52.5375 36.8125 52.7847 36.8125Z" fill="#33495F"/>
<path id="Vector_7" d="M50.5006 29.3687L53.0718 31.5424C53.2875 31.7249 53.5373 31.8125 53.7845 31.8125C54.1602 31.8125 54.5307 31.6109 54.7679 31.2297C55.1625 30.599 55.0417 29.7153 54.4991 29.2561L51.9279 27.0823C51.3859 26.6239 50.6265 26.7637 50.2319 27.3951C49.8379 28.0264 49.958 28.9102 50.5006 29.3687Z" fill="#33495F"/>
<path id="Vector_8" d="M46.9284 34.0823C46.3865 33.6239 45.6263 33.7637 45.2324 34.3951C44.8378 35.0257 44.9579 35.9095 45.5005 36.3687L48.0718 38.5424C48.2874 38.7249 48.5372 38.8125 48.7845 38.8125C49.1601 38.8125 49.5307 38.6101 49.7678 38.2297C50.1624 37.5983 50.0416 36.7153 49.4997 36.2561L46.9284 34.0823Z" fill="#33495F"/>
<path id="Vector_9" d="M76.0819 24.3266H75.9182C73.7577 24.3266 72 25.9745 72 28C72 30.0255 73.7577 31.6734 75.9182 31.6734H76.0819V31.8268C76.0819 33.8523 77.8396 35.5 80.0001 35.5C82.1606 35.5 83.9183 33.8521 83.9183 31.8268V31.6734H84.0818C86.2423 31.6734 88 30.0255 88 28C88 25.9745 86.2423 24.3266 84.0818 24.3266H83.9183V24.1734C83.9183 22.1479 82.1606 20.5 80.0001 20.5C77.8396 20.5 76.0819 22.1479 76.0819 24.1734V24.3266ZM77.3344 26.6751C78.0261 26.6751 78.5869 26.1494 78.5869 25.5009V24.1734C78.5869 23.4428 79.2209 22.8485 80.0001 22.8485C80.7793 22.8485 81.4133 23.4428 81.4133 24.1734V25.5009C81.4133 26.1494 81.9741 26.6751 82.6658 26.6751H84.0818C84.861 26.6751 85.495 27.2695 85.495 28C85.495 28.7305 84.861 29.3249 84.0818 29.3249H82.6658C81.9741 29.3249 81.4133 29.8506 81.4133 30.4991V31.8268C81.4133 32.5573 80.7793 33.1515 80.0001 33.1515C79.2209 33.1515 78.5869 32.5572 78.5869 31.8268V30.4991C78.5869 29.8506 78.0261 29.3249 77.3344 29.3249H75.9182C75.139 29.3249 74.505 28.7305 74.505 28C74.505 27.2695 75.139 26.6751 75.9182 26.6751H77.3344Z" fill="#33495F"/>
<path id="Vector_10" d="M5.08188 66.3266H4.91821C2.7577 66.3266 1 67.9745 1 70C1 72.0255 2.7577 73.6734 4.91821 73.6734H5.08188V73.8268C5.08188 75.8523 6.83958 77.5 9.00009 77.5C11.1606 77.5 12.9183 75.8521 12.9183 73.8268V73.6734H13.0818C15.2423 73.6734 17 72.0255 17 70C17 67.9745 15.2423 66.3266 13.0818 66.3266H12.9183V66.1734C12.9183 64.1479 11.1606 62.5 9.00009 62.5C6.83958 62.5 5.08188 64.1479 5.08188 66.1734V66.3266ZM6.33439 68.6751C7.02612 68.6751 7.58691 68.1494 7.58691 67.5009V66.1734C7.58691 65.4428 8.22085 64.8485 9.00009 64.8485C9.77932 64.8485 10.4133 65.4428 10.4133 66.1734V67.5009C10.4133 68.1494 10.9741 68.6751 11.6658 68.6751H13.0818C13.861 68.6751 14.495 69.2695 14.495 70C14.495 70.7305 13.861 71.3249 13.0818 71.3249H11.6658C10.9741 71.3249 10.4133 71.8506 10.4133 72.4991V73.8268C10.4133 74.5573 9.77932 75.1515 9.00009 75.1515C8.22085 75.1515 7.58691 74.5572 7.58691 73.8268V72.4991C7.58691 71.8506 7.02612 71.3249 6.33439 71.3249H4.91821C4.13898 71.3249 3.50504 70.7305 3.50504 70C3.50504 69.2695 4.13898 68.6751 4.91821 68.6751H6.33439Z" fill="#33495F"/>
<path id="Vector_11" d="M59.7097 11.7097H61.7903V13.7903C61.7903 14.7345 62.5558 15.5 63.5 15.5C64.4442 15.5 65.2097 14.7345 65.2097 13.7903V11.7097H67.2903C68.2345 11.7097 69 10.9442 69 10C69 9.05579 68.2345 8.2903 67.2903 8.2903H65.2097V6.2097C65.2097 5.26549 64.4442 4.5 63.5 4.5C62.5558 4.5 61.7903 5.26549 61.7903 6.2097V8.2903H59.7097C58.7655 8.2903 58 9.05579 58 10C58 10.9442 58.7655 11.7097 59.7097 11.7097Z" fill="#33495F"/>
<path id="Vector_12" d="M19.7097 85.3651H21.7903V87.6349C21.7903 88.6649 22.5558 89.5 23.5 89.5C24.4442 89.5 25.2097 88.6649 25.2097 87.6349V85.3651H27.2903C28.2345 85.3651 29 84.53 29 83.5C29 82.47 28.2345 81.6349 27.2903 81.6349H25.2097V79.3651C25.2097 78.3351 24.4442 77.5 23.5 77.5C22.5558 77.5 21.7903 78.3351 21.7903 79.3651V81.6349H19.7097C18.7655 81.6349 18 82.47 18 83.5C18 84.53 18.7655 85.3651 19.7097 85.3651Z" fill="#33495F"/>
</g>
</svg>
