<svg width="44" height="15" viewBox="0 0 44 15" fill="none" xmlns="http://www.w3.org/2000/svg">
<path d="M40.7403 14.7791L40.3278 12.7166H35.7188L34.9855 14.7645L31.2913 14.7718C33.05 10.5426 34.8125 6.31491 36.5787 2.08881C36.8793 1.37198 37.4128 1.00715 38.1993 1.01081C38.8007 1.01631 39.7815 1.01631 41.1437 1.01265L44 14.7736L40.7403 14.7791ZM36.7565 9.89148H39.7265L38.6173 4.72148L36.7565 9.89148ZM12.9433 1.00898L16.6577 1.01265L10.9157 14.781L7.1555 14.7773C6.20996 11.1406 5.27617 7.50077 4.35417 3.85798C4.17083 3.13198 3.80783 2.62415 3.10933 2.38398C2.07758 2.03826 1.04103 1.707 0 1.39031L0 1.01448H5.9345C6.96117 1.01448 7.56067 1.51131 7.75317 2.53065C7.9475 3.55181 8.43517 6.15148 9.21983 10.3296L12.9433 1.00898ZM21.7617 1.01265L18.8247 14.7773L15.29 14.7736L18.2233 1.00898L21.7617 1.01265ZM28.93 0.757812C29.9878 0.757812 31.3207 1.08781 32.087 1.39031L31.4673 4.24481C30.7743 3.96615 29.634 3.59031 28.6752 3.60315C27.2818 3.62698 26.4202 4.21181 26.4202 4.77281C26.4202 5.68581 27.9162 6.14598 29.4562 7.14331C31.2143 8.27998 31.4453 9.30115 31.4233 10.4103C31.3995 12.713 29.4562 14.9845 25.3568 14.9845C23.4868 14.957 22.8122 14.7993 21.2868 14.2585L21.9322 11.2793C23.485 11.9301 24.1432 12.1373 25.4705 12.1373C26.686 12.1373 27.7292 11.646 27.7383 10.7898C27.7457 10.1811 27.3717 9.87865 26.0077 9.12698C24.6437 8.37348 22.7297 7.33031 22.7553 5.23665C22.7865 2.55631 25.3257 0.757812 28.9318 0.757812H28.93Z" fill="#33495F"/>
</svg>
