<svg width="13" height="11" viewBox="0 0 13 11" fill="none" xmlns="http://www.w3.org/2000/svg">
<path fill-rule="evenodd" clip-rule="evenodd" d="M6.5 1.375C6.6554 1.375 6.80444 1.43262 6.91432 1.53518C7.0242 1.63774 7.08594 1.77683 7.08594 1.92187V5.20312H10.6016C10.757 5.20312 10.906 5.26074 11.0159 5.3633C11.1258 5.46586 11.1875 5.60496 11.1875 5.75C11.1875 5.89504 11.1258 6.03414 11.0159 6.1367C10.906 6.23926 10.757 6.29687 10.6016 6.29687H7.08594V9.57812C7.08594 9.72316 7.0242 9.86226 6.91432 9.96482C6.80444 10.0674 6.6554 10.125 6.5 10.125C6.3446 10.125 6.19556 10.0674 6.08568 9.96482C5.97579 9.86226 5.91406 9.72316 5.91406 9.57812V6.29687H2.39844C2.24304 6.29687 2.094 6.23926 1.98412 6.1367C1.87423 6.03414 1.8125 5.89504 1.8125 5.75C1.8125 5.60496 1.87423 5.46586 1.98412 5.3633C2.094 5.26074 2.24304 5.20312 2.39844 5.20312H5.91406V1.92187C5.91406 1.77683 5.97579 1.63774 6.08568 1.53518C6.19556 1.43262 6.3446 1.375 6.5 1.375Z" fill="#5281A2"/>
</svg>
