<svg width="16" height="16" viewBox="0 0 16 16" fill="none" xmlns="http://www.w3.org/2000/svg">
<path d="M8.00065 15.1654C4.04732 15.1654 0.833984 11.952 0.833984 7.9987C0.833984 4.04536 4.04732 0.832031 8.00065 0.832031C11.954 0.832031 15.1673 4.04536 15.1673 7.9987C15.1673 11.952 11.954 15.1654 8.00065 15.1654ZM8.00065 1.83203C4.60065 1.83203 1.83398 4.5987 1.83398 7.9987C1.83398 11.3987 4.60065 14.1654 8.00065 14.1654C11.4007 14.1654 14.1673 11.3987 14.1673 7.9987C14.1673 4.5987 11.4007 1.83203 8.00065 1.83203Z" fill="#33495F"/>
<path d="M8 9.16536C7.72667 9.16536 7.5 8.9387 7.5 8.66536V5.33203C7.5 5.0587 7.72667 4.83203 8 4.83203C8.27333 4.83203 8.5 5.0587 8.5 5.33203V8.66536C8.5 8.9387 8.27333 9.16536 8 9.16536Z" fill="#33495F"/>
<path d="M8.00065 11.3339C7.91398 11.3339 7.82732 11.3139 7.74732 11.2806C7.66732 11.2472 7.59398 11.2006 7.52732 11.1406C7.46732 11.0739 7.42065 11.0072 7.38732 10.9206C7.35398 10.8406 7.33398 10.7539 7.33398 10.6672C7.33398 10.5806 7.35398 10.4939 7.38732 10.4139C7.42065 10.3339 7.46732 10.2606 7.52732 10.1939C7.59398 10.1339 7.66732 10.0872 7.74732 10.0539C7.90732 9.98724 8.09398 9.98724 8.25398 10.0539C8.33398 10.0872 8.40732 10.1339 8.47398 10.1939C8.53398 10.2606 8.58065 10.3339 8.61398 10.4139C8.64732 10.4939 8.66732 10.5806 8.66732 10.6672C8.66732 10.7539 8.64732 10.8406 8.61398 10.9206C8.58065 11.0072 8.53398 11.0739 8.47398 11.1406C8.40732 11.2006 8.33398 11.2472 8.25398 11.2806C8.17398 11.3139 8.08732 11.3339 8.00065 11.3339Z" fill="#33495F"/>
</svg>
