<svg width="25" height="24" viewBox="0 0 25 24" fill="none" xmlns="http://www.w3.org/2000/svg">
<path d="M12.5007 23.2787C18.7305 23.2787 23.7807 18.2285 23.7807 11.9987C23.7807 5.76898 18.7305 0.71875 12.5007 0.71875C6.27093 0.71875 1.2207 5.76898 1.2207 11.9987C1.2207 18.2285 6.27093 23.2787 12.5007 23.2787Z" fill="#74A7B3"/>
<path d="M11.0111 16.2815C10.9638 16.2815 10.917 16.2722 10.8733 16.2542C10.8296 16.2361 10.7899 16.2096 10.7565 16.1762L6.50605 11.9258C6.47167 11.8926 6.44424 11.8528 6.42538 11.8089C6.40651 11.765 6.39658 11.7177 6.39616 11.6699C6.39575 11.6221 6.40486 11.5747 6.42296 11.5305C6.44106 11.4863 6.46779 11.4461 6.50159 11.4123C6.53539 11.3785 6.57559 11.3517 6.61983 11.3336C6.66407 11.3155 6.71148 11.3064 6.75928 11.3068C6.80708 11.3072 6.85432 11.3172 6.89824 11.336C6.94216 11.3549 6.98188 11.3823 7.01509 11.4167L11.0166 15.4182L18.2574 8.50216C18.3264 8.43618 18.4189 8.40033 18.5143 8.40249C18.6098 8.40465 18.7005 8.44465 18.7665 8.51368C18.8324 8.58271 18.8683 8.67512 18.8661 8.77058C18.864 8.86605 18.824 8.95674 18.7549 9.02272L11.2597 16.1819C11.1901 16.2484 11.1006 16.2818 11.0111 16.2818V16.2815ZM4.85965 8.01592C4.79618 8.01586 4.73386 7.99902 4.67899 7.9671C4.62413 7.93519 4.57868 7.88934 4.54725 7.8342C4.51581 7.77906 4.49952 7.71659 4.50001 7.65312C4.5005 7.58965 4.51777 7.52744 4.55005 7.4728C5.82205 5.32048 7.94653 3.7456 10.3785 3.15184C10.5721 3.10384 10.7665 3.22288 10.8136 3.41608C10.8248 3.462 10.8269 3.50969 10.8197 3.55642C10.8125 3.60315 10.7962 3.648 10.7716 3.68841C10.7471 3.72882 10.7148 3.764 10.6767 3.79193C10.6385 3.81986 10.5953 3.84 10.5493 3.8512C8.30461 4.39936 6.34381 5.8528 5.16997 7.83904C5.13811 7.89297 5.09272 7.93766 5.0383 7.96868C4.98387 7.9997 4.9223 8.01598 4.85965 8.01592ZM14.1436 3.73936C14.1234 3.73936 14.1028 3.73768 14.0821 3.73408C13.7902 3.68351 13.496 3.64723 13.2006 3.62536C13.1534 3.62198 13.1074 3.60934 13.0651 3.58817C13.0228 3.56699 12.9851 3.53769 12.9542 3.50194C12.9232 3.46619 12.8996 3.4247 12.8847 3.37982C12.8698 3.33494 12.8639 3.28757 12.8673 3.2404C12.8746 3.14535 12.9192 3.05704 12.9912 2.99463C13.0633 2.93223 13.1571 2.90075 13.2522 2.90704C13.5609 2.92912 13.8813 2.96848 14.2043 3.02416C14.2923 3.04039 14.3712 3.0888 14.4255 3.15996C14.4798 3.23113 14.5057 3.31997 14.4981 3.40917C14.4906 3.49838 14.4501 3.58158 14.3845 3.64257C14.319 3.70355 14.2331 3.73797 14.1436 3.73912V3.73936Z" fill="white"/>
</svg>
