<svg width="25" height="26" viewBox="0 0 25 26" fill="none" xmlns="http://www.w3.org/2000/svg">
<path d="M24.1588 16.9004L24.05 15.3278C23.9929 14.5011 23.6477 13.7151 23.0782 13.1145C22.9377 12.9666 22.7042 12.9606 22.5562 13.1011C22.4083 13.2415 22.4022 13.4752 22.5425 13.6232C22.9944 14.0995 23.2682 14.7229 23.3134 15.3787L23.4222 16.9512C23.4643 17.5635 23.0194 18.0927 22.4089 18.1562C22.372 18.16 22.333 18.1619 22.293 18.1619C22.1239 18.1619 21.954 18.1233 21.8015 18.0498L21.077 17.701C21.0064 17.4909 20.9186 17.2867 20.814 17.0908L19.0872 13.8625C18.9564 13.6182 18.7986 13.3917 18.6169 13.1869L19.1433 12.8829C19.3065 12.7885 19.4927 12.7386 19.6817 12.7386H20.486C20.8038 12.7386 21.116 12.791 21.4143 12.8941C21.6073 12.961 21.8173 12.8585 21.8838 12.6657C21.9505 12.473 21.8482 12.2625 21.6556 12.196C21.2795 12.0657 20.8859 11.9998 20.486 11.9998H19.6815C19.3629 11.9998 19.0491 12.0842 18.7739 12.2433L18.2156 12.5655C18.3886 12.2354 18.4219 11.8499 18.2861 11.5267C18.2071 11.3386 17.9908 11.2503 17.8028 11.3293C17.6147 11.4084 17.5265 11.6248 17.6055 11.813C17.6772 11.9836 17.602 12.2339 17.4309 12.3949C17.4023 12.4218 17.3713 12.447 17.338 12.4707C17.3313 12.4749 17.3246 12.4795 17.3182 12.4843C17.1498 12.5973 16.9246 12.67 16.6466 12.7013C16.444 12.7242 16.2982 12.9072 16.3211 13.1099C16.3422 13.2984 16.502 13.4379 16.6874 13.4379C16.7012 13.4379 16.7151 13.4371 16.7293 13.4356C17.0346 13.4012 17.303 13.3263 17.5326 13.2121C17.6116 13.265 17.6876 13.3219 17.7605 13.3823C17.7682 13.3896 17.7762 13.3962 17.7845 13.4027C18.0493 13.6276 18.2704 13.9011 18.4361 14.211L20.1629 17.4394C20.4139 17.9084 20.5465 18.4378 20.5465 18.9703V19.5262C20.5465 20.3998 20.182 21.2304 19.564 21.8231C19.399 20.595 18.3446 19.6449 17.0725 19.6449H16.9537C16.9543 19.6234 16.9546 19.6016 16.9546 19.5799C16.9546 18.9285 16.1978 18.5078 15.0269 18.5078C13.8557 18.5078 13.0991 18.9285 13.0991 19.5799C13.0991 19.6016 13.0993 19.6234 13.1001 19.6449H12.9809C11.7092 19.6449 10.6549 20.595 10.49 21.8231C9.87201 21.2304 9.50745 20.3998 9.50745 19.5262V18.9703C9.50745 18.4378 9.64012 17.9086 9.89104 17.4394L11.6175 14.211C11.784 13.8998 12.0039 13.6289 12.2628 13.4073C12.2751 13.3983 12.287 13.3883 12.2983 13.3775C12.7884 12.9718 13.4114 12.7394 14.0707 12.7385C14.147 12.7402 15.0067 12.7583 15.3151 12.7377C15.6697 12.7142 15.9317 12.6028 16.209 12.4849L16.2409 12.4714C16.7868 12.2398 17.1984 11.8447 17.37 11.3874C17.4696 11.1216 17.4819 10.8561 17.4059 10.6207C17.3105 10.3238 17.0698 10.0872 16.7774 10.0028C16.5812 9.9464 16.3769 10.0595 16.3205 10.2555C16.264 10.4516 16.377 10.6562 16.573 10.7128C16.6293 10.729 16.6828 10.784 16.703 10.8473C16.7272 10.9219 16.7185 11.0216 16.6787 11.1277C16.5778 11.3965 16.3132 11.6383 15.9527 11.7912L15.9204 11.8049C15.6741 11.9095 15.496 11.9853 15.2661 12.0005C15.0307 12.0161 14.3322 12.0053 14.0828 11.9998C14.0801 11.9998 14.0774 11.9998 14.0747 11.9998C13.3193 11.9998 12.6013 12.2398 12.0116 12.6657L11.28 12.2433C11.0043 12.084 10.6901 11.9998 10.3719 11.9998H9.56802C7.69834 11.9998 6.13245 13.4616 6.00344 15.3278L5.89519 16.9004C5.82558 17.9117 6.56046 18.786 7.56778 18.8908C7.63027 18.8974 7.69526 18.9006 7.76044 18.9006C8.03963 18.9006 8.32035 18.8366 8.57242 18.7154L8.78546 18.6128C8.7745 18.7315 8.76912 18.8508 8.76912 18.9701V19.5262C8.76912 20.8501 9.44862 22.0944 10.5529 22.8115C10.8405 23.8836 11.8199 24.6754 12.9809 24.6754C13.0903 24.6754 13.1984 24.6683 13.3045 24.6548C13.7015 25.2029 14.3395 25.5337 15.0267 25.5337C15.7139 25.5337 16.3519 25.2027 16.7489 24.6548C16.855 24.6683 16.9631 24.6754 17.0725 24.6754C18.2337 24.6754 19.2133 23.8836 19.5009 22.8115C20.6052 22.0944 21.2847 20.8501 21.2847 19.5262V18.9701C21.2847 18.8508 21.2793 18.7317 21.2685 18.613L21.4812 18.7156C21.7331 18.8366 22.0138 18.9006 22.2928 18.9006C22.3585 18.9006 22.4235 18.8974 22.4856 18.8908C23.4935 18.786 24.2284 17.9117 24.1588 16.9004ZM8.25228 18.0496C8.09962 18.1231 7.92965 18.1619 7.76064 18.1619C7.72083 18.1619 7.682 18.16 7.64469 18.156C7.03461 18.0927 6.58987 17.5633 6.63198 16.9512L6.74023 15.3787C6.84272 13.8983 8.08481 12.7385 9.56821 12.7385H10.3721C10.5609 12.7385 10.7474 12.7885 10.9111 12.8831L11.4365 13.1865C11.2566 13.39 11.0983 13.6162 10.9666 13.8625L9.24019 17.0908C9.13559 17.2865 9.04772 17.4906 8.97735 17.7004L8.25228 18.0496ZM15.0269 19.2465C15.3839 19.2465 15.7247 19.301 15.9612 19.3956C16.1471 19.4702 16.2163 19.5482 16.2163 19.5797C16.2163 20.3115 15.6827 20.9067 15.0269 20.9067C14.371 20.9067 13.8375 20.3115 13.8375 19.5797C13.8375 19.4831 14.2543 19.2465 15.0269 19.2465ZM15.0267 24.795C14.6708 24.795 14.3351 24.6588 14.0821 24.424C14.4574 24.242 14.7827 23.9682 15.0269 23.6254C15.2711 23.9682 15.5964 24.2418 15.9717 24.4238C15.7187 24.6588 15.3828 24.795 15.0267 24.795ZM17.0725 23.9367C16.9379 23.9367 16.8062 23.9217 16.6793 23.8932C16.6641 23.8884 16.6487 23.8847 16.6332 23.8822C16.0465 23.7339 15.5678 23.2938 15.3789 22.6951C15.3303 22.5414 15.1878 22.437 15.0269 22.437C15.0267 22.437 15.0267 22.437 15.0267 22.437C14.8656 22.437 14.7231 22.5416 14.6746 22.6953C14.4862 23.294 14.0073 23.7341 13.4202 23.8822C13.4049 23.8849 13.3895 23.8886 13.3745 23.8932C13.2474 23.9217 13.1157 23.9367 12.9809 23.9367C12.0022 23.9367 11.2058 23.1397 11.2058 22.1601C11.2058 21.1806 12.0022 20.3836 12.9809 20.3836H13.251C13.5443 21.1246 14.2299 21.6456 15.0269 21.6456C15.8239 21.6456 16.5095 21.1246 16.8027 20.3836H17.0725C18.0516 20.3836 18.8482 21.1806 18.8482 22.1601C18.8482 23.1397 18.0518 23.9367 17.0725 23.9367Z" fill="#33495F"/>
<path d="M12.1631 16.8086C11.799 16.8086 11.4579 17.0378 11.1493 17.4902C11.0185 17.6818 11.0583 17.9504 11.2379 18.0899C11.3093 18.1454 11.3921 18.1722 11.4742 18.1722C11.5985 18.1722 11.7213 18.111 11.7998 17.9956C11.9649 17.7534 12.0957 17.6673 12.1631 17.6673C12.2306 17.6673 12.3616 17.7536 12.5264 17.9956C12.6574 18.1872 12.9088 18.2295 13.0886 18.0899C13.2682 17.9504 13.3078 17.6818 13.177 17.4902C12.8686 17.0378 12.5275 16.8086 12.1631 16.8086Z" fill="#33495F"/>
<path d="M17.2172 18.0899C17.3743 18.2295 17.5945 18.1872 17.7089 17.9956C17.8532 17.7534 17.9678 17.6673 18.0268 17.6673C18.0858 17.6673 18.2002 17.7536 18.3447 17.9956C18.4136 18.111 18.5209 18.1722 18.6296 18.1722C18.7013 18.1722 18.7739 18.1454 18.8364 18.0899C18.9937 17.9504 19.0283 17.6818 18.9139 17.4902C18.6441 17.0378 18.3456 16.8086 18.0268 16.8086C17.708 16.8086 17.4095 17.0378 17.1397 17.4902C17.0253 17.6818 17.0599 17.9504 17.2172 18.0899Z" fill="#33495F"/>
<path d="M7.39865 3.02379C7.04488 2.76677 6.61241 2.66316 6.1807 2.73141C5.74881 2.79966 5.36956 3.03215 5.11274 3.38574C4.58238 4.11592 4.74472 5.14133 5.47469 5.67171C5.76458 5.88234 6.10105 5.98366 6.43448 5.98366C6.9409 5.98366 7.44085 5.74984 7.76059 5.30976C8.0176 4.95598 8.1214 4.5235 8.05296 4.09178C7.98453 3.66006 7.75223 3.28061 7.39865 3.02379ZM7.17016 4.8807C7.02777 5.0765 6.81753 5.2052 6.57839 5.24322C6.33925 5.28105 6.09972 5.22345 5.90373 5.08125C5.4994 4.78736 5.40948 4.21933 5.70318 3.81499C5.84557 3.61899 6.05562 3.4903 6.29476 3.45228C6.34286 3.44486 6.39076 3.44106 6.43848 3.44106C6.62838 3.44106 6.81296 3.50056 6.96941 3.61443C7.1654 3.75682 7.2941 3.96688 7.33193 4.20603C7.36995 4.44517 7.31235 4.6847 7.17016 4.8807Z" fill="#33495F"/>
<path d="M9.94579 9.3455L10.6036 10.2872C10.7306 10.4688 10.9305 10.5854 11.1482 10.6076C11.1496 10.6078 11.151 10.608 11.1525 10.608C11.1589 10.6088 11.1652 10.6092 11.1716 10.6098C11.1797 10.6104 11.1879 10.6108 11.1961 10.6112C11.2037 10.6113 11.2112 10.6115 11.219 10.6117H11.2252C11.4675 10.6117 11.6968 10.4946 11.8395 10.2974L13.6556 7.78715C13.7995 7.58838 13.839 7.33064 13.7614 7.0975C13.7579 7.08657 13.754 7.07583 13.7499 7.06509C13.7472 7.05786 13.7443 7.05084 13.7414 7.044C13.7384 7.03678 13.7353 7.02994 13.7322 7.02311C13.726 7.00944 13.7196 6.99616 13.7126 6.98308C13.7122 6.9823 13.7118 6.98152 13.7114 6.98074C13.6177 6.80442 13.4573 6.66969 13.2642 6.61014L12.3923 6.34166L12.1689 6.27274L9.27087 2.31858C9.16024 2.16082 9.03618 2.01125 8.90182 1.87359C8.75735 1.72598 8.5209 1.72363 8.37371 1.86871C8.22651 2.01359 8.22437 2.25102 8.36884 2.39883C8.47559 2.50818 8.57437 2.62748 8.66207 2.75284C8.66382 2.75518 8.66537 2.75752 8.66712 2.75967L11.4788 6.59628L10.0389 8.58653C5.32986 6.98113 5.27834 7.09028 4.69889 6.66735C3.442 5.75042 3.16239 3.97749 4.07569 2.71535C4.8072 1.70411 6.13545 1.29251 7.30562 1.71407C7.49968 1.78397 7.71337 1.68263 7.78298 1.48776C7.85279 1.2929 7.75187 1.07831 7.55781 1.00821C6.07731 0.474966 4.39692 0.995521 3.47136 2.27465C2.75094 3.27066 2.61736 4.51796 3.00489 5.59695L0.334573 8.82338C0.204294 8.98115 0.144211 9.18831 0.169878 9.39138C0.19535 9.59445 0.304628 9.77975 0.469128 9.89944L1.25955 10.4764C1.39002 10.5715 1.54227 10.619 1.69433 10.619C1.85085 10.619 2.00719 10.5688 2.14019 10.4684L5.55386 7.88263L9.94579 9.3455ZM12.0868 7.0319L13.0451 7.32693C13.0476 7.32771 13.0501 7.32849 13.0521 7.33201C13.0524 7.33298 13.053 7.33396 13.0532 7.33513C13.0554 7.34118 13.0534 7.34372 13.0515 7.34645L11.2354 9.85668C11.2334 9.85922 11.2317 9.86176 11.2252 9.86176H11.225C11.2196 9.86176 11.2175 9.8598 11.2157 9.85766C11.2155 9.85727 11.2153 9.85688 11.2149 9.85648L10.6392 9.0325L12.0868 7.0319ZM1.69433 9.86683L0.913824 9.29688L3.36791 6.33151C3.59872 6.68824 3.89719 7.00944 4.26003 7.27421C4.41053 7.38394 4.56842 7.48138 4.73233 7.56573L1.69433 9.86683Z" fill="#33495F"/>
<path d="M14.5595 10.6214C14.662 10.6214 14.7629 10.5663 14.8277 10.4625C14.9352 10.2903 14.9024 10.0493 14.7544 9.92432L14.0532 9.33155C13.9053 9.20633 13.6982 9.24446 13.5906 9.41663C13.4831 9.5888 13.5159 9.82981 13.6639 9.95483L14.3652 10.5476C14.424 10.5974 14.4921 10.6214 14.5595 10.6214Z" fill="#33495F"/>
<path d="M13.9373 8.59167L14.6386 9.18451C14.6974 9.23429 14.7655 9.25817 14.8329 9.25817C14.9354 9.25817 15.0364 9.20318 15.1011 9.09922C15.2087 8.92723 15.1758 8.68619 15.0278 8.56096L14.3266 7.96812C14.1788 7.84309 13.9716 7.88122 13.864 8.05341C13.7566 8.22561 13.7893 8.46664 13.9373 8.59167Z" fill="#33495F"/>
<path d="M12.9615 9.87437C12.8137 9.74934 12.6064 9.78747 12.4989 9.95966C12.3913 10.1317 12.4241 10.3727 12.572 10.4979L13.2733 11.0908C13.3321 11.1405 13.4002 11.1644 13.4677 11.1644C13.5701 11.1644 13.6712 11.1092 13.7359 11.0055C13.8435 10.8333 13.8105 10.5924 13.6627 10.4672L12.9615 9.87437Z" fill="#33495F"/>
<path d="M20.914 7.2155H20.8694C20.2802 7.2155 19.8008 7.66492 19.8008 8.21733C19.8008 8.76974 20.2802 9.21916 20.8694 9.21916H20.914V9.261C20.914 9.81341 21.3934 10.2628 21.9826 10.2628C22.5719 10.2628 23.0512 9.81337 23.0512 9.261V9.21916H23.0958C23.685 9.21916 24.1644 8.76974 24.1644 8.21733C24.1644 7.66492 23.685 7.2155 23.0958 7.2155H23.0512V7.1737C23.0512 6.62129 22.5719 6.17188 21.9826 6.17188C21.3934 6.17188 20.914 6.62129 20.914 7.1737V7.2155ZM21.2556 7.856C21.4443 7.856 21.5972 7.71262 21.5972 7.53575V7.1737C21.5972 6.97446 21.7701 6.81237 21.9826 6.81237C22.1951 6.81237 22.368 6.97446 22.368 7.1737V7.53575C22.368 7.71262 22.521 7.856 22.7096 7.856H23.0958C23.3083 7.856 23.4812 8.01809 23.4812 8.21733C23.4812 8.41657 23.3083 8.57866 23.0958 8.57866H22.7096C22.521 8.57866 22.368 8.72204 22.368 8.89891V9.261C22.368 9.46024 22.1951 9.62229 21.9826 9.62229C21.7701 9.62229 21.5972 9.4602 21.5972 9.261V8.89891C21.5972 8.72204 21.4443 8.57866 21.2556 8.57866H20.8694C20.6569 8.57866 20.484 8.41657 20.484 8.21733C20.484 8.01809 20.6569 7.856 20.8694 7.856H21.2556Z" fill="#33495F"/>
<path d="M1.54879 18.6686H1.50415C0.91492 18.6686 0.435547 19.118 0.435547 19.6705C0.435547 20.2229 0.91492 20.6723 1.50415 20.6723H1.54879V20.7141C1.54879 21.2665 2.02816 21.7159 2.61739 21.7159C3.20662 21.7159 3.68599 21.2665 3.68599 20.7141V20.6723H3.73058C4.31981 20.6723 4.79918 20.2229 4.79918 19.6705C4.79918 19.118 4.31981 18.6686 3.73058 18.6686H3.68599V18.6268C3.68599 18.0744 3.20662 17.625 2.61739 17.625C2.02816 17.625 1.54879 18.0744 1.54879 18.6268V18.6686ZM1.89038 19.3091C2.07903 19.3091 2.23198 19.1657 2.23198 18.9889V18.6268C2.23198 18.4276 2.40487 18.2655 2.61739 18.2655C2.82991 18.2655 3.0028 18.4276 3.0028 18.6268V18.9889C3.0028 19.1657 3.15574 19.3091 3.3444 19.3091H3.73058C3.9431 19.3091 4.11599 19.4712 4.11599 19.6705C4.11599 19.8697 3.9431 20.0318 3.73058 20.0318H3.3444C3.15574 20.0318 3.0028 20.1752 3.0028 20.352V20.7141C3.0028 20.9134 2.82991 21.0754 2.61739 21.0754C2.40487 21.0754 2.23198 20.9133 2.23198 20.7141V20.352C2.23198 20.1752 2.07903 20.0318 1.89038 20.0318H1.50415C1.29163 20.0318 1.11874 19.8697 1.11874 19.6705C1.11874 19.4712 1.29163 19.3091 1.50415 19.3091H1.89038Z" fill="#33495F"/>
<path d="M16.4487 3.77488H17.0161V4.34231C17.0161 4.59982 17.2249 4.80859 17.4824 4.80859C17.7399 4.80859 17.9487 4.59982 17.9487 4.34231V3.77488L18.5161 3.77488C18.7737 3.77488 18.9824 3.56611 18.9824 3.30859C18.9824 3.05108 18.7737 2.84231 18.5161 2.84231L17.9487 2.84231V2.27488C17.9487 2.01736 17.7399 1.80859 17.4824 1.80859C17.2249 1.80859 17.0161 2.01736 17.0161 2.27488V2.84231H16.4487C16.1912 2.84231 15.9824 3.05108 15.9824 3.30859C15.9824 3.56611 16.1912 3.77488 16.4487 3.77488Z" fill="#33495F"/>
<path d="M5.53855 23.8638H6.10598V24.4828C6.10598 24.7637 6.31475 24.9915 6.57226 24.9915C6.82978 24.9915 7.03855 24.7637 7.03855 24.4828V23.8638H7.60598C7.8635 23.8638 8.07227 23.636 8.07227 23.3551C8.07227 23.0742 7.8635 22.8464 7.60598 22.8464H7.03855V22.2274C7.03855 21.9465 6.82978 21.7188 6.57226 21.7188C6.31475 21.7188 6.10598 21.9465 6.10598 22.2274V22.8464H5.53855C5.28104 22.8464 5.07227 23.0742 5.07227 23.3551C5.07227 23.636 5.28104 23.8638 5.53855 23.8638Z" fill="#33495F"/>
</svg>
