<svg width="14" height="15" viewBox="0 0 14 15" fill="none" xmlns="http://www.w3.org/2000/svg">
<path fill-rule="evenodd" clip-rule="evenodd" d="M7.00065 0C8.17886 0 9.13398 1.07452 9.13398 2.4V5.1H11.534C12.7122 5.1 13.6673 6.17452 13.6673 7.5C13.6673 8.82548 12.7122 9.9 11.534 9.9H9.13398V12.6C9.13398 13.9255 8.17886 15 7.00065 15C5.82244 15 4.86732 13.9255 4.86732 12.6V9.9H2.46732C1.28911 9.9 0.333984 8.82548 0.333984 7.5C0.333984 6.17452 1.28911 5.1 2.46732 5.1L4.86732 5.1L4.86732 2.4C4.86732 1.07452 5.82244 0 7.00065 0Z" fill="#33495F"/>
</svg>
