<svg width="25" height="25" viewBox="0 0 25 25" fill="none" xmlns="http://www.w3.org/2000/svg">
<path d="M21.0938 7.8125C21.6309 7.8125 22.1354 7.91423 22.6074 8.11768C23.0794 8.32113 23.4904 8.60189 23.8403 8.95996C24.1903 9.31803 24.471 9.73307 24.6826 10.2051C24.8942 10.6771 25 11.1816 25 11.7188C25 12.1826 24.9227 12.6261 24.7681 13.0493C24.6134 13.4725 24.3978 13.8509 24.1211 14.1846C23.8444 14.5182 23.5148 14.8071 23.1323 15.0513C22.7498 15.2954 22.3307 15.4622 21.875 15.5518V16.7969C21.875 17.5212 21.7855 18.2251 21.6064 18.9087C21.4274 19.5923 21.1751 20.2433 20.8496 20.8618C20.5241 21.4803 20.1253 22.0378 19.6533 22.5342C19.1813 23.0306 18.6564 23.466 18.0786 23.8403C17.5008 24.2147 16.8701 24.4995 16.1865 24.6948C15.5029 24.8901 14.7949 24.9919 14.0625 25C13.3219 25 12.6139 24.8983 11.9385 24.6948C11.263 24.4914 10.6364 24.2065 10.0586 23.8403C9.48079 23.4741 8.95589 23.0387 8.48389 22.5342C8.01188 22.0296 7.61312 21.4722 7.2876 20.8618C6.96208 20.2515 6.70573 19.6045 6.51855 18.9209C6.33138 18.2373 6.24186 17.5293 6.25 16.7969V14.0015C5.24902 13.9119 4.36198 13.6719 3.58887 13.2812C2.81576 12.8906 2.16064 12.3779 1.62354 11.7432C1.08643 11.1084 0.683594 10.3719 0.415039 9.53369C0.146484 8.69548 0.00813802 7.78809 0 6.81152V0H3.90625C4.11784 0 4.30094 0.0773112 4.45557 0.231934C4.61019 0.386556 4.6875 0.569661 4.6875 0.78125C4.6875 0.992839 4.61019 1.17594 4.45557 1.33057C4.30094 1.48519 4.11784 1.5625 3.90625 1.5625H1.5625V6.81152C1.5625 7.67415 1.6805 8.4554 1.9165 9.15527C2.15251 9.85514 2.50651 10.4533 2.97852 10.9497C3.45052 11.4461 4.02018 11.8286 4.6875 12.0972C5.35482 12.3657 6.13607 12.5 7.03125 12.5C7.85319 12.5 8.60189 12.3739 9.27734 12.1216C9.9528 11.8693 10.5265 11.5072 10.9985 11.0352C11.4705 10.5632 11.8408 9.99349 12.1094 9.32617C12.3779 8.65885 12.5081 7.90609 12.5 7.06787V1.5625H10.1562C9.94466 1.5625 9.76156 1.48519 9.60693 1.33057C9.45231 1.17594 9.375 0.992839 9.375 0.78125C9.375 0.569661 9.45231 0.386556 9.60693 0.231934C9.76156 0.0773112 9.94466 0 10.1562 0H14.0625V6.81152C14.0625 7.78809 13.9242 8.69548 13.6475 9.53369C13.3708 10.3719 12.9679 11.1084 12.439 11.7432C11.91 12.3779 11.259 12.8906 10.4858 13.2812C9.71273 13.6719 8.82161 13.9119 7.8125 14.0015V16.7969C7.8125 17.6676 7.96712 18.5018 8.27637 19.2993C8.58561 20.0968 9.021 20.8049 9.58252 21.4233C10.144 22.0418 10.8032 22.5301 11.5601 22.8882C12.3169 23.2463 13.151 23.4294 14.0625 23.4375C14.9658 23.4375 15.7959 23.2544 16.5527 22.8882C17.3096 22.522 17.9688 22.0337 18.5303 21.4233C19.0918 20.813 19.5272 20.109 19.8364 19.3115C20.1457 18.514 20.3044 17.6758 20.3125 16.7969V15.5518C19.8568 15.4541 19.4377 15.2873 19.0552 15.0513C18.6727 14.8153 18.3431 14.5304 18.0664 14.1968C17.7897 13.8631 17.5741 13.4806 17.4194 13.0493C17.2648 12.618 17.1875 12.1745 17.1875 11.7188C17.1875 11.1816 17.2892 10.6771 17.4927 10.2051C17.6961 9.73307 17.9728 9.3221 18.3228 8.97217C18.6727 8.62223 19.0877 8.34147 19.5679 8.12988C20.048 7.91829 20.5566 7.8125 21.0938 7.8125ZM21.0938 14.0625C21.4193 14.0625 21.7244 14.0015 22.0093 13.8794C22.2941 13.7573 22.5423 13.5905 22.7539 13.3789C22.9655 13.1673 23.1323 12.9191 23.2544 12.6343C23.3765 12.3494 23.4375 12.0443 23.4375 11.7188C23.4375 11.3932 23.3765 11.0881 23.2544 10.8032C23.1323 10.5184 22.9655 10.2702 22.7539 10.0586C22.5423 9.84701 22.2941 9.68018 22.0093 9.55811C21.7244 9.43604 21.4193 9.375 21.0938 9.375C20.7682 9.375 20.4631 9.43604 20.1782 9.55811C19.8934 9.68018 19.6452 9.84701 19.4336 10.0586C19.222 10.2702 19.0552 10.5184 18.9331 10.8032C18.811 11.0881 18.75 11.3932 18.75 11.7188C18.75 12.0443 18.811 12.3494 18.9331 12.6343C19.0552 12.9191 19.222 13.1673 19.4336 13.3789C19.6452 13.5905 19.8934 13.7573 20.1782 13.8794C20.4631 14.0015 20.7682 14.0625 21.0938 14.0625Z" fill="#33495F"/>
</svg>
