<svg width="15" height="17" viewBox="0 0 15 17" fill="none" xmlns="http://www.w3.org/2000/svg">
<path fill-rule="evenodd" clip-rule="evenodd" d="M7.21029 6.08203C6.40612 6.08203 5.75195 6.7362 5.75195 7.5412C5.75195 8.34536 6.40612 8.9987 7.21029 8.9987C8.01445 8.9987 8.66862 8.34536 8.66862 7.5412C8.66862 6.7362 8.01445 6.08203 7.21029 6.08203ZM7.21029 10.2487C5.71695 10.2487 4.50195 9.03453 4.50195 7.5412C4.50195 6.04703 5.71695 4.83203 7.21029 4.83203C8.70362 4.83203 9.91862 6.04703 9.91862 7.5412C9.91862 9.03453 8.70362 10.2487 7.21029 10.2487Z" fill="#33495F"/>
<mask id="mask0_2740_11508" style="mask-type:luminance" maskUnits="userSpaceOnUse" x="0" y="0" width="15" height="17">
<path fill-rule="evenodd" clip-rule="evenodd" d="M0.333984 0.666016H14.0836V16.916H0.333984V0.666016Z" fill="white"/>
</mask>
<g mask="url(#mask0_2740_11508)">
<path fill-rule="evenodd" clip-rule="evenodd" d="M7.20898 1.91602C4.10732 1.91602 1.58398 4.46352 1.58398 7.59352C1.58398 11.576 6.27065 15.456 7.20898 15.6627C8.14732 15.4552 12.834 11.5752 12.834 7.59352C12.834 4.46352 10.3107 1.91602 7.20898 1.91602ZM7.20898 16.916C5.71398 16.916 0.333984 12.2893 0.333984 7.59352C0.333984 3.77352 3.41815 0.666016 7.20898 0.666016C10.9998 0.666016 14.084 3.77352 14.084 7.59352C14.084 12.2893 8.70398 16.916 7.20898 16.916Z" fill="#33495F"/>
</g>
</svg>
