<svg width="15" height="18" viewBox="0 0 15 18" fill="none" xmlns="http://www.w3.org/2000/svg">
<mask id="mask0_1971_7786" style="mask-type:luminance" maskUnits="userSpaceOnUse" x="0" y="0" width="15" height="18">
<path fill-rule="evenodd" clip-rule="evenodd" d="M0.333984 0.791016H14.0836V17.041H0.333984V0.791016Z" fill="white"/>
</mask>
<g mask="url(#mask0_1971_7786)">
<path fill-rule="evenodd" clip-rule="evenodd" d="M7.20898 2.04102C4.10732 2.04102 1.58398 4.58852 1.58398 7.71852C1.58398 11.701 6.27065 15.581 7.20898 15.7877C8.14732 15.5802 12.834 11.7002 12.834 7.71852C12.834 4.58852 10.3107 2.04102 7.20898 2.04102ZM7.20898 17.041C5.71398 17.041 0.333984 12.4143 0.333984 7.71852C0.333984 3.89852 3.41815 0.791016 7.20898 0.791016C10.9998 0.791016 14.084 3.89852 14.084 7.71852C14.084 12.4143 8.70398 17.041 7.20898 17.041Z" fill="#33495F"/>
</g>
</svg>
