<svg width="20" height="21" viewBox="0 0 20 21" fill="none" xmlns="http://www.w3.org/2000/svg">
<path fill-rule="evenodd" clip-rule="evenodd" d="M10.2103 7.20703C9.40612 7.20703 8.75195 7.8612 8.75195 8.6662C8.75195 9.47036 9.40612 10.1237 10.2103 10.1237C11.0145 10.1237 11.6686 9.47036 11.6686 8.6662C11.6686 7.8612 11.0145 7.20703 10.2103 7.20703ZM10.2103 11.3737C8.71695 11.3737 7.50195 10.1595 7.50195 8.6662C7.50195 7.17203 8.71695 5.95703 10.2103 5.95703C11.7036 5.95703 12.9186 7.17203 12.9186 8.6662C12.9186 10.1595 11.7036 11.3737 10.2103 11.3737Z" fill="#33495F"/>
<mask id="mask0_1971_7781" style="mask-type:luminance" maskUnits="userSpaceOnUse" x="3" y="1" width="15" height="18">
<path fill-rule="evenodd" clip-rule="evenodd" d="M3.33398 1.79102H17.0836V18.041H3.33398V1.79102Z" fill="white"/>
</mask>
<g mask="url(#mask0_1971_7781)">
<path fill-rule="evenodd" clip-rule="evenodd" d="M10.209 3.04102C7.10732 3.04102 4.58398 5.58852 4.58398 8.71852C4.58398 12.701 9.27065 16.581 10.209 16.7877C11.1473 16.5802 15.834 12.7002 15.834 8.71852C15.834 5.58852 13.3107 3.04102 10.209 3.04102ZM10.209 18.041C8.71398 18.041 3.33398 13.4143 3.33398 8.71852C3.33398 4.89852 6.41815 1.79102 10.209 1.79102C13.9998 1.79102 17.084 4.89852 17.084 8.71852C17.084 13.4143 11.704 18.041 10.209 18.041Z" fill="#33495F"/>
</g>
</svg>
