<svg width="25" height="25" viewBox="0 0 25 25" fill="none" xmlns="http://www.w3.org/2000/svg">
<path d="M18.3919 17.3509C17.2918 18.451 14.8382 20.9046 13.4695 22.2733C12.9328 22.81 12.0657 22.8098 11.529 22.2731C10.1828 20.9269 7.78173 18.5258 6.60679 17.3509C3.35242 14.0965 3.35242 8.82015 6.60679 5.56578C9.86116 2.31141 15.1375 2.31141 18.3919 5.56578C21.6463 8.82015 21.6463 14.0965 18.3919 17.3509Z" stroke="#33495F" stroke-width="1.4" stroke-linecap="round" stroke-linejoin="round"/>
<path d="M15.6243 11.4583C15.6243 13.1842 14.2252 14.5833 12.4993 14.5833C10.7735 14.5833 9.37435 13.1842 9.37435 11.4583C9.37435 9.73244 10.7735 8.33333 12.4993 8.33333C14.2252 8.33333 15.6243 9.73244 15.6243 11.4583Z" stroke="#33495F" stroke-width="1.4" stroke-linecap="round" stroke-linejoin="round"/>
</svg>
