<svg width="25" height="25" viewBox="0 0 25 25" fill="none" xmlns="http://www.w3.org/2000/svg">
<path d="M11.5711 7.10002C11.9855 6.35517 12.1927 5.98438 12.5025 5.98438C12.8122 5.98438 13.0194 6.35517 13.4338 7.10002L13.5407 7.29196C13.6585 7.50353 13.7174 7.60822 13.809 7.67802C13.9017 7.74782 14.0162 7.77399 14.2452 7.82525L14.4524 7.87323C15.2572 8.05536 15.6596 8.14587 15.7556 8.45341C15.8516 8.76204 15.5768 9.08267 15.0282 9.72392L14.8864 9.88968C14.7305 10.0718 14.652 10.1623 14.6171 10.2757C14.5822 10.3892 14.5942 10.5102 14.6171 10.7534L14.6389 10.9748C14.7218 11.8309 14.7632 12.2595 14.5135 12.4492C14.2626 12.639 13.8853 12.4656 13.1317 12.1188L12.9376 12.0294C12.7228 11.9312 12.6159 11.8821 12.5025 11.8821C12.389 11.8821 12.2822 11.9312 12.0673 12.0294L11.8732 12.1188C11.1196 12.4667 10.7423 12.639 10.4915 12.4492C10.2406 12.2595 10.2832 11.8309 10.3661 10.9748L10.3879 10.7534C10.4108 10.5102 10.4228 10.3892 10.3879 10.2757C10.353 10.1634 10.2744 10.0718 10.1185 9.88968L9.97672 9.72392C9.42817 9.08267 9.15334 8.76204 9.24931 8.45341C9.34528 8.14587 9.7477 8.05536 10.5525 7.87323L10.7597 7.82525C10.9888 7.77399 11.1033 7.74891 11.196 7.67802C11.2876 7.60822 11.3465 7.50353 11.4642 7.29196L11.5711 7.10002Z" stroke="#33495F" stroke-width="1.4" stroke-linejoin="round"/>
<path d="M20.1351 9.25504C20.1351 10.2575 19.9376 11.2502 19.554 12.1764C19.1703 13.1026 18.608 13.9442 17.8991 14.6531C17.1903 15.3619 16.3487 15.9242 15.4225 16.3079C14.4963 16.6915 13.5036 16.889 12.5011 16.889C11.4986 16.889 10.5059 16.6915 9.57975 16.3079C8.65356 15.9242 7.812 15.3619 7.10312 14.6531C6.39424 13.9442 5.83193 13.1026 5.44829 12.1764C5.06465 11.2502 4.86719 10.2575 4.86719 9.25504C4.86719 7.23039 5.67148 5.28867 7.10312 3.85702C8.53476 2.42538 10.4765 1.62109 12.5011 1.62109C14.5258 1.62109 16.4675 2.42538 17.8991 3.85702C19.3308 5.28867 20.1351 7.23039 20.1351 9.25504Z" stroke="#33495F" stroke-width="1.4" stroke-linejoin="round"/>
<path d="M5.36505 12.5254L2.6779 15.3074C2.089 15.917 1.79454 16.2224 1.69203 16.4809C1.45974 17.0687 1.65931 17.7219 2.16424 18.0316C2.38672 18.1669 2.78696 18.2094 3.58743 18.2945C4.04001 18.3425 4.26576 18.3654 4.45443 18.4384C4.66537 18.5202 4.85604 18.6468 5.01326 18.8095C5.17049 18.9722 5.29051 19.1671 5.36505 19.3807C5.43484 19.577 5.45775 19.8104 5.50464 20.2793C5.58534 21.1081 5.62678 21.5225 5.75765 21.7516C6.05647 22.275 6.6879 22.4801 7.255 22.2401C7.50582 22.1354 7.80028 21.8312 8.38918 21.2205L12.5017 16.9618L16.6142 21.2205C17.2031 21.8312 17.4976 22.1354 17.7484 22.2401C18.3155 22.4801 18.9469 22.275 19.2457 21.7516C19.3766 21.5225 19.417 21.1081 19.4988 20.2793C19.5456 19.8104 19.5686 19.577 19.6383 19.3807C19.7954 18.9423 20.1247 18.6009 20.549 18.4384C20.7376 18.3654 20.9634 18.3425 21.416 18.2945C22.2164 18.2094 22.6167 18.1669 22.8392 18.0316C23.3441 17.7219 23.5437 17.0687 23.3114 16.4809C23.2089 16.2224 22.9144 15.917 22.3255 15.3074L19.6383 12.5254" stroke="#33495F" stroke-width="1.4" stroke-linejoin="round"/>
</svg>
